<svg width="80" height="80" viewBox="0 0 80 80" fill="none" xmlns="http://www.w3.org/2000/svg">
<path d="M47.1106 45.775C49.9376 45.775 52.2294 42.4134 52.2294 38.2667C52.2294 34.1199 49.9376 30.7583 47.1106 30.7583C44.2835 30.7583 41.9918 34.1199 41.9918 38.2667C41.9918 42.4134 44.2835 45.775 47.1106 45.775Z" fill="#1347FF"/>
<path d="M37.0077 38.2667C37.0077 42.4134 34.7159 45.775 31.8888 45.775C29.0618 45.775 26.77 42.4134 26.77 38.2667C26.77 34.12 29.0618 30.7584 31.8888 30.7584C34.7159 30.7584 37.0077 34.12 37.0077 38.2667Z" fill="#1347FF"/>
<path fill-rule="evenodd" clip-rule="evenodd" d="M9 23.7087L14.4407 18H64.5597L70 23.6838V56.3162L64.5597 62H14.4403L9 56.3162V23.7087ZM17.9923 24.2134L15.8664 26.3861V53.6519L17.9923 55.8246H61.0736L63.1212 53.6483V26.3897L61.0736 24.2134H17.9923Z" fill="#1347FF"/>
</svg>
