<svg width="28" height="28" viewBox="0 0 28 28" fill="none" xmlns="http://www.w3.org/2000/svg">
<path d="M7.64558 6.78334C7.61355 6.75296 7.57868 6.72027 7.54422 6.68716C6.83768 6.00837 6.29089 5.22352 5.9606 4.29585C5.86816 4.03621 5.79837 3.7714 5.81075 3.49176C5.81193 3.46522 5.81185 3.4386 5.81368 3.41212C5.8386 3.05114 6.08019 2.86874 6.43295 2.95422C6.54422 2.98304 6.65188 3.0243 6.75391 3.07723C7.13976 3.27073 7.45426 3.55679 7.74346 3.87051C8.25713 4.41715 8.66907 5.05112 8.95989 5.74257C8.96624 5.75904 8.97352 5.77514 8.9817 5.79078C8.98569 5.79798 8.99415 5.8027 9.01302 5.81984C10.3898 4.99388 11.9471 4.51602 13.5501 4.42764C13.5403 4.37858 13.5344 4.34108 13.5251 4.30444C13.3615 3.62754 13.3113 2.9282 13.3765 2.23488C13.4052 1.81941 13.4889 1.40957 13.6254 1.01611C13.6914 0.808874 13.7954 0.615724 13.9321 0.446513C13.9837 0.386073 14.0433 0.33292 14.1092 0.288509C14.1749 0.242074 14.2532 0.216879 14.3337 0.216318C14.4141 0.215757 14.4927 0.239858 14.5591 0.285373C14.6992 0.380274 14.8119 0.510259 14.8861 0.662357C15.0243 0.920312 15.1236 1.19726 15.1808 1.48424C15.3112 2.09109 15.3513 2.71388 15.2997 3.33244C15.2741 3.70997 15.2086 4.08373 15.1042 4.44745C15.503 4.52092 15.8999 4.57785 16.2884 4.67017C16.6761 4.76031 17.0583 4.87256 17.4331 5.00635C17.811 5.14505 18.1807 5.30527 18.5402 5.48623C18.8956 5.66344 19.2338 5.87491 19.5884 6.07638C19.5999 6.05213 19.6167 6.02319 19.628 5.99226C19.9973 4.97054 20.6335 4.06633 21.4704 3.37357C21.6658 3.20585 21.8901 3.07522 22.1324 2.98812C22.1992 2.96486 22.2682 2.94899 22.3384 2.9408C22.6892 2.90063 22.8365 3.12136 22.8624 3.38498C22.8818 3.57931 22.8672 3.77555 22.8191 3.96484C22.6909 4.45379 22.4883 4.92009 22.2182 5.34735C21.8379 5.96177 21.3866 6.51522 20.813 6.96185C20.796 6.97503 20.7812 6.99087 20.7525 7.01731C21.3135 7.53479 21.8132 8.11507 22.2417 8.74672C22.2106 8.75474 22.179 8.76031 22.1471 8.76339C21.5538 8.76423 20.9604 8.76237 20.3671 8.76597C20.3321 8.76513 20.2979 8.75614 20.267 8.73971C20.2362 8.72327 20.2096 8.69986 20.1894 8.67133C18.8949 7.25696 17.1496 6.33565 15.2515 6.06462C14.6902 5.98295 14.1218 5.961 13.5558 5.99914C11.8683 6.10218 10.2539 6.72438 8.93373 7.78053C8.59283 8.04942 8.27485 8.34616 7.98306 8.66767C7.95717 8.6998 7.92412 8.72543 7.88656 8.74252C7.84899 8.75961 7.80796 8.76768 7.76672 8.76609C7.19997 8.76215 6.63318 8.76413 6.0664 8.76413H5.94588C5.98049 8.62928 6.32893 8.15161 6.72336 7.72518C7.01749 7.40716 7.32909 7.10529 7.64558 6.78334Z" fill="#3B3D45"/>
<path d="M22.0936 19.4833C21.6995 20.035 21.2496 20.5447 20.7511 21.0044C20.7909 21.0375 20.8231 21.0644 20.8554 21.0913C21.7206 21.799 22.3734 22.7321 22.7417 23.7874C22.8397 24.0448 22.8817 24.3201 22.865 24.595C22.8598 24.6654 22.8458 24.7348 22.8231 24.8017C22.7946 24.8964 22.7324 24.9774 22.6482 25.0292C22.564 25.0811 22.4636 25.1002 22.3663 25.083C22.2348 25.0659 22.107 25.028 21.9875 24.9706C21.8051 24.8806 21.6327 24.7715 21.4734 24.645C20.634 23.9554 19.9967 23.0516 19.629 22.0294C19.6185 22.0007 19.607 21.9723 19.5885 21.9243C19.1415 22.2198 18.6734 22.482 18.1878 22.7087C17.7046 22.929 17.205 23.1111 16.6934 23.2533C16.1735 23.3944 15.6436 23.4952 15.1083 23.555C15.1177 23.6021 15.1231 23.6396 15.1328 23.6759C15.3026 24.342 15.3588 25.032 15.2992 25.7167C15.2768 26.146 15.1934 26.5698 15.0515 26.9755C14.9839 27.1434 14.906 27.3069 14.8183 27.4652C14.7827 27.5266 14.7386 27.5826 14.6873 27.6315C14.4644 27.8617 14.1983 27.8636 13.9811 27.6274C13.8952 27.5322 13.8217 27.4265 13.7623 27.3128C13.59 26.9894 13.5013 26.6377 13.438 26.2791C13.3565 25.7895 13.331 25.2923 13.3619 24.797C13.3787 24.4343 13.4328 24.0743 13.5234 23.7226C13.5312 23.6928 13.5384 23.6627 13.5442 23.6325C13.5457 23.6248 13.5406 23.6158 13.5346 23.5911C11.9318 23.5005 10.3754 23.0201 9.0004 22.1915C8.97745 22.2424 8.95773 22.2853 8.93871 22.3284C8.55337 23.2275 7.96033 24.0225 7.20825 24.648C7.00915 24.8181 6.78047 24.9502 6.53361 25.0377C6.41792 25.0841 6.29167 25.0977 6.16876 25.0769C6.10089 25.0647 6.03733 25.0352 5.9843 24.9911C5.93126 24.9471 5.89056 24.89 5.86618 24.8255C5.78687 24.6338 5.80092 24.4343 5.82785 24.2366C5.87203 23.9609 5.95317 23.6925 6.06908 23.4385C6.41254 22.6386 6.91804 21.9186 7.55371 21.3238C7.57941 21.2995 7.60578 21.2758 7.63103 21.251C7.63906 21.2395 7.64591 21.2272 7.65149 21.2143C7.05256 20.6949 6.51739 20.1062 6.05723 19.4606C6.11237 19.4561 6.14925 19.4505 6.18615 19.4505C6.77495 19.4499 7.36377 19.452 7.95254 19.448C7.99171 19.4469 8.03065 19.4544 8.06652 19.4702C8.1024 19.4859 8.13431 19.5095 8.15994 19.5391C8.80004 20.1976 9.54586 20.7444 10.3665 21.1567C11.2347 21.6034 12.1787 21.884 13.1499 21.984C15.7886 22.2405 18.0585 21.4405 19.9595 19.5841C20.002 19.5382 20.0541 19.5021 20.1121 19.4785C20.1701 19.4548 20.2325 19.4442 20.2951 19.4473C20.844 19.4541 21.393 19.4501 21.9419 19.4501H22.0838L22.0936 19.4833Z" fill="#3B3D45"/>
<path d="M19.6412 11.0745C19.7972 11.0745 19.9475 11.0851 20.0956 11.0717C20.2633 11.0565 20.3834 11.1165 20.5057 11.2292C21.212 11.88 21.9257 12.5229 22.637 13.1683C22.6728 13.2008 22.7093 13.2324 22.7552 13.273C22.798 13.2362 22.8381 13.2034 22.8764 13.1686C23.6096 12.5012 24.3422 11.8331 25.0743 11.1645C25.1047 11.1332 25.1414 11.1088 25.182 11.0929C25.2226 11.077 25.2662 11.07 25.3097 11.0724C25.49 11.0797 25.6707 11.0745 25.8608 11.0745V16.9751C25.7643 17.0033 24.4678 17.0089 24.313 16.9785V13.9903L24.283 13.976C23.7784 14.4362 23.2738 14.8964 22.7577 15.3671C22.241 14.9017 21.7305 14.4418 21.22 13.9819L21.1906 13.9927C21.1893 14.2421 21.1902 14.4915 21.19 14.7409C21.1899 14.9888 21.1899 15.2367 21.19 15.4846V16.9894H19.654C19.6253 16.8901 19.6119 11.4083 19.6412 11.0745Z" fill="#3B3D45"/>
<path d="M5.46747 11.0815H6.99421C7.02504 11.1797 7.03107 16.8479 6.99951 16.9909H5.47141C5.46299 16.6155 5.46875 16.2414 5.4677 15.8675C5.46665 15.4966 5.46747 15.1258 5.46747 14.7453H3.57536V16.9708C3.46003 17.0052 2.15667 17.0085 2.0271 16.9777V11.0822H3.56924V13.1648C3.67944 13.1966 5.30094 13.2025 5.46607 13.172C5.46653 13.0053 5.46719 12.8346 5.46742 12.6638C5.46765 12.4867 5.46767 12.3096 5.46747 12.1325C5.46747 11.9599 5.46747 11.7872 5.46747 11.6145C5.46747 11.4422 5.46747 11.2698 5.46747 11.0815Z" fill="#3B3D45"/>
<path d="M8.82422 16.9889V11.0991C8.91477 11.0695 12.2707 11.0579 12.4901 11.0877V12.3429C12.4409 12.3464 12.3901 12.3531 12.3393 12.3532C11.7417 12.354 11.144 12.3541 10.5463 12.3537H10.3801V13.33H12.2476V14.6287H10.3968C10.3659 14.7399 10.3574 15.5145 10.3825 15.7289C10.4298 15.7321 10.4805 15.7384 10.5312 15.7384C11.1289 15.7391 11.7265 15.7393 12.3242 15.7389H12.4905V16.9889H8.82422Z" fill="#3B3D45"/>
<path d="M14.2399 16.991C14.2118 16.833 14.2175 11.1893 14.2453 11.082H15.7664V15.4368C15.832 15.4403 15.8835 15.4452 15.935 15.4452C16.5371 15.4458 17.1392 15.4459 17.7413 15.4456C17.7932 15.4456 17.845 15.4456 17.9042 15.4456V16.991L14.2399 16.991Z" fill="#3B3D45"/>
</svg>
