<svg width="22" height="22" viewBox="0 0 22 22" fill="none" xmlns="http://www.w3.org/2000/svg">
<path fill-rule="evenodd" clip-rule="evenodd" d="M11 20.5C16.2467 20.5 20.5 16.2467 20.5 11C20.5 5.75329 16.2467 1.5 11 1.5C5.75329 1.5 1.5 5.75329 1.5 11C1.5 16.2467 5.75329 20.5 11 20.5ZM11 22C17.0751 22 22 17.0751 22 11C22 4.92487 17.0751 0 11 0C4.92487 0 0 4.92487 0 11C0 17.0751 4.92487 22 11 22Z" fill="#3B3D45"/>
<path fill-rule="evenodd" clip-rule="evenodd" d="M12.4718 16.3004C10.6247 16.8115 8.56283 16.3411 7.11084 14.8891C5.65885 13.4371 5.18842 11.3753 5.69955 9.52809L4.51969 8.34823C3.48499 10.8798 3.99515 13.8947 6.05018 15.9498C8.10522 18.0048 11.1201 18.515 13.6517 17.4803L12.4718 16.3004ZM10.213 5.55627C11.8698 5.31807 13.6144 5.83629 14.889 7.11092C16.1636 8.38555 16.6819 10.1302 16.4437 11.7869L17.6973 13.0406C18.4242 10.6477 17.8416 7.94219 15.9497 6.05026C14.0577 4.15833 11.3523 3.57578 8.95934 4.3026L10.213 5.55627Z" fill="#3B3D45"/>
</svg>
