<svg width="53" height="13" viewBox="0 0 53 13" fill="none" xmlns="http://www.w3.org/2000/svg">
<g clip-path="url(#clip0_36_1097)">
<path d="M5.86295 4.90639H4.0672L1.355 7.52039V2.1665H0V11.0071H1.355V8.93513L2.42853 7.98768L4.57123 11.0071H6.23823L3.39732 7.11706L5.86295 4.90639Z" fill="#1347FF"/>
<path d="M19.4109 4.90652L18.7279 5.58935L18.0559 4.90652H15.6142L14.8004 5.74086V4.90652H13.5217V11.0073H14.8789V6.73737L15.6011 6.01827H17.1634L17.5387 6.38531V11.0073H18.8959V6.49839L19.3847 6.01827H21.1804L21.5557 6.38531V11.0073H22.9108V5.99267L21.8263 4.90652H19.4109Z" fill="#1347FF"/>
<path fill-rule="evenodd" clip-rule="evenodd" d="M6.46283 5.99267L7.54726 4.90652H11.2544L12.3389 5.99267V9.92112L11.2544 11.0073H7.54726L6.46283 9.92112V5.99267ZM10.6086 9.89549L10.9708 9.52848H10.973V6.38531L10.6107 6.01827H8.19531L7.8331 6.38531V9.52848L8.19315 9.89549H10.6086Z" fill="#1347FF"/>
<path fill-rule="evenodd" clip-rule="evenodd" d="M43.2791 4.90652L42.1947 5.99267V9.92112L43.2791 11.0073H46.9863L48.0707 9.92112V5.99267L46.9863 4.90652H43.2791ZM46.7028 9.52848L46.3405 9.89549H43.9252L43.5629 9.52848V6.38531L43.9252 6.01827H46.3405L46.7028 6.38531V9.52848Z" fill="#1347FF"/>
<path d="M50.5323 5.81555L51.4355 4.90652H53.0002V6.16979H51.3332L50.6108 6.8782V11.0073H49.2536V4.90652H50.5323V5.81555Z" fill="#1347FF"/>
<path fill-rule="evenodd" clip-rule="evenodd" d="M25.0906 4.90652L24.0061 5.99267V9.92112L25.0906 11.0073H33.1027L34.1871 9.92112V5.99267L33.1027 4.90652H25.0906ZM32.817 9.52848L32.4547 9.89549H25.7343L25.3721 9.52848V6.38531L25.7343 6.01827H32.4547L32.817 6.38531V9.52848Z" fill="#1347FF"/>
<path fill-rule="evenodd" clip-rule="evenodd" d="M38.895 4.90639L39.6437 5.66392V2.1665H40.9984V11.0071H39.6437V10.2624L38.895 11.0071H36.3116L35.2272 9.92098V5.99252L36.3116 4.90639H38.895ZM38.9213 9.89538L39.6437 9.18905V6.73725L38.9213 6.01813H36.9577L36.5823 6.38516V9.52834L36.9577 9.89538H38.9213Z" fill="#1347FF"/>
</g>
<defs>
<clipPath id="clip0_36_1097">
<rect width="53" height="13" fill="white"/>
</clipPath>
</defs>
</svg>
