<svg width="77" height="19" viewBox="0 0 77 19" fill="none" xmlns="http://www.w3.org/2000/svg">
<g clip-path="url(#clip0_231_1524)">
<path d="M8.51786 7.17108H5.90895L1.96859 10.9915V3.16663H0V16.0875H1.96859V13.0592L3.52824 11.6745L6.64123 16.0875H9.06309L4.93573 10.4021L8.51786 7.17108Z" fill="#1347FF"/>
<path d="M28.2007 7.17127L27.2085 8.16924L26.2321 7.17127H22.6848L21.5024 8.39069V7.17127H19.6448V16.0877H21.6165V9.84712L22.6658 8.79613H24.9356L25.4808 9.33257V16.0877H27.4526V9.49785L28.1627 8.79613H30.7716L31.3168 9.33257V16.0877H33.2854V8.75871L31.7099 7.17127H28.2007Z" fill="#1347FF"/>
<path fill-rule="evenodd" clip-rule="evenodd" d="M9.38939 8.75871L10.9649 7.17127H16.3508L17.9263 8.75871V14.5003L16.3508 16.0877H10.9649L9.38939 14.5003V8.75871ZM15.4124 14.4628L15.9387 13.9264H15.9418V9.33257L15.4156 8.79613H11.9064L11.3802 9.33257V13.9264L11.9033 14.4628H15.4124Z" fill="#1347FF"/>
<path fill-rule="evenodd" clip-rule="evenodd" d="M62.8772 7.17127L61.3017 8.75871V14.5003L62.8772 16.0877H68.2631L69.8385 14.5003V8.75871L68.2631 7.17127H62.8772ZM67.8513 13.9264L67.3249 14.4628H63.8158L63.2895 13.9264V9.33257L63.8158 8.79613H67.3249L67.8513 9.33257V13.9264Z" fill="#1347FF"/>
<path d="M73.4148 8.49984L74.7271 7.17127H77.0003V9.01758H74.5785L73.5289 10.053V16.0877H71.5571V7.17127H73.4148V8.49984Z" fill="#1347FF"/>
<path fill-rule="evenodd" clip-rule="evenodd" d="M36.4523 7.17127L34.8768 8.75871V14.5003L36.4523 16.0877H48.0926L49.668 14.5003V8.75871L48.0926 7.17127H36.4523ZM47.6776 13.9264L47.1512 14.4628H37.3875L36.8613 13.9264V9.33257L37.3875 8.79613H47.1512L47.6776 9.33257V13.9264Z" fill="#1347FF"/>
<path fill-rule="evenodd" clip-rule="evenodd" d="M56.5078 7.17108L57.5955 8.27823V3.16663H59.5637V16.0875H57.5955V14.9991L56.5078 16.0875H52.7546L51.1792 14.5001V8.7585L52.7546 7.17108H56.5078ZM56.546 14.4627L57.5955 13.4303V9.84695L56.546 8.79592H53.6933L53.1478 9.33236V13.9262L53.6933 14.4627H56.546Z" fill="#1347FF"/>
</g>
<defs>
<clipPath id="clip0_231_1524">
<rect width="77" height="19" fill="white"/>
</clipPath>
</defs>
</svg>
