<svg width="434" height="142" viewBox="0 0 434 142" fill="none" xmlns="http://www.w3.org/2000/svg">
<rect width="434" height="142" fill="white"/>
<path d="M165.774 93.1886C168.971 93.1886 171.695 93.7807 174.063 95.0832C176.431 96.2673 178.326 98.0434 179.628 100.412C180.931 102.661 181.641 105.266 181.641 108.345C181.641 111.424 180.931 114.029 179.628 116.279C178.326 118.528 176.431 120.305 174.063 121.489C171.695 122.673 168.971 123.383 165.774 123.383H155.236V93.1886H165.774ZM165.537 118.055C168.734 118.055 171.103 117.226 172.879 115.45C174.655 113.674 175.484 111.305 175.484 108.227C175.484 105.148 174.655 102.661 172.879 100.885C171.103 99.1091 168.734 98.1619 165.537 98.1619H161.274V117.936H165.537V118.055ZM185.549 111.187C185.549 108.819 186.022 106.687 186.969 104.793C187.917 102.898 189.219 101.477 190.877 100.53C192.535 99.5828 194.429 98.9907 196.442 98.9907C198.218 98.9907 199.758 99.346 201.06 100.056C202.363 100.767 203.428 101.714 204.257 102.78V99.346H210.296V123.146H204.257V119.712C203.428 120.778 202.363 121.725 201.06 122.554C199.758 123.265 198.1 123.62 196.324 123.62C194.311 123.62 192.535 123.146 190.877 122.081C189.219 121.015 187.917 119.594 186.969 117.7C186.022 115.805 185.549 113.674 185.549 111.187ZM204.257 111.305C204.257 109.884 204.021 108.582 203.428 107.516C202.836 106.451 202.126 105.622 201.06 105.148C200.113 104.556 199.047 104.319 197.982 104.319C196.916 104.319 195.85 104.556 194.903 105.148C193.956 105.74 193.127 106.451 192.535 107.516C191.943 108.582 191.706 109.766 191.706 111.187C191.706 112.608 191.943 113.91 192.535 114.976C193.127 116.042 193.956 116.871 194.903 117.463C195.85 118.055 196.916 118.292 197.982 118.292C199.047 118.292 200.113 118.055 201.06 117.463C202.008 116.871 202.836 116.042 203.428 115.094C204.021 114.029 204.257 112.726 204.257 111.305ZM226.4 123.62C224.505 123.62 222.729 123.265 221.19 122.554C219.651 121.844 218.467 120.897 217.519 119.712C216.572 118.528 216.098 117.226 216.098 115.687H222.137C222.256 116.634 222.729 117.344 223.44 117.936C224.269 118.528 225.216 118.884 226.4 118.884C227.584 118.884 228.413 118.647 229.123 118.173C229.834 117.7 230.071 117.107 230.071 116.397C230.071 115.568 229.716 115.094 228.887 114.621C228.058 114.266 226.874 113.792 225.098 113.318C223.321 112.845 221.9 112.489 220.716 112.016C219.651 111.542 218.585 110.832 217.756 109.884C216.927 108.937 216.572 107.635 216.572 106.095C216.572 104.793 216.927 103.609 217.638 102.543C218.467 101.477 219.532 100.648 220.953 99.938C222.374 99.346 224.032 98.9907 225.926 98.9907C228.768 98.9907 231.018 99.7012 232.676 101.122C234.333 102.543 235.281 104.438 235.518 106.806H229.715C229.597 105.859 229.242 105.148 228.531 104.556C227.821 103.964 226.874 103.727 225.69 103.727C224.624 103.727 223.795 103.964 223.203 104.319C222.611 104.674 222.374 105.266 222.374 105.977C222.374 106.806 222.729 107.398 223.558 107.871C224.387 108.227 225.571 108.7 227.347 109.174C229.123 109.648 230.426 110.003 231.61 110.477C232.794 110.95 233.741 111.661 234.452 112.608C235.281 113.555 235.754 114.858 235.754 116.397C235.754 117.818 235.399 119.002 234.57 120.068C233.86 121.133 232.794 121.962 231.255 122.673C229.952 123.265 228.295 123.62 226.4 123.62ZM255.292 99.1091C257.068 99.1091 258.726 99.4644 260.147 100.293C261.568 101.122 262.633 102.188 263.462 103.727C264.291 105.266 264.646 107.043 264.646 109.174V123.146H258.608V110.121C258.608 108.227 258.134 106.806 257.187 105.74C256.239 104.674 254.937 104.201 253.279 104.201C251.621 104.201 250.319 104.674 249.372 105.74C248.424 106.687 247.951 108.227 247.951 110.121V123.265H241.912V91.4125H247.951V102.425C248.78 101.359 249.727 100.648 251.029 100.056C252.213 99.346 253.634 99.1091 255.292 99.1091ZM277.316 102.898C278.145 101.714 279.092 100.767 280.513 100.056C281.934 99.346 283.474 98.9907 285.25 98.9907C287.263 98.9907 289.157 99.4644 290.697 100.53C292.354 101.477 293.657 103.017 294.604 104.793C295.551 106.569 296.025 108.819 296.025 111.187C296.025 113.555 295.551 115.805 294.604 117.7C293.657 119.594 292.354 121.015 290.697 122.081C289.039 123.146 287.263 123.62 285.25 123.62C283.474 123.62 281.934 123.265 280.513 122.554C279.211 121.844 278.145 120.897 277.316 119.831V123.265H271.277V91.4125H277.316V102.898ZM289.868 111.187C289.868 109.766 289.513 108.464 288.921 107.516C288.328 106.451 287.618 105.622 286.552 105.148C285.605 104.556 284.539 104.319 283.474 104.319C282.408 104.319 281.342 104.556 280.395 105.148C279.448 105.74 278.619 106.451 278.027 107.516C277.435 108.582 277.198 109.766 277.198 111.305C277.198 112.845 277.435 114.029 278.027 115.094C278.619 116.16 279.448 116.989 280.395 117.581C281.342 118.173 282.408 118.41 283.474 118.41C284.539 118.41 285.605 118.173 286.552 117.581C287.5 116.989 288.328 116.16 288.921 115.094C289.631 113.91 289.868 112.726 289.868 111.187ZM312.129 123.62C309.879 123.62 307.748 123.146 305.972 122.081C304.195 121.015 302.656 119.594 301.59 117.7C300.525 115.805 300.051 113.674 300.051 111.305C300.051 108.937 300.525 106.687 301.59 104.911C302.656 103.017 304.195 101.596 305.972 100.648C307.866 99.5828 309.879 99.1091 312.247 99.1091C314.616 99.1091 316.628 99.5828 318.523 100.648C320.418 101.596 321.839 103.135 322.904 104.911C323.97 106.806 324.562 108.937 324.562 111.305C324.562 113.674 323.97 115.923 322.904 117.7C321.839 119.594 320.299 121.015 318.405 122.081C316.51 123.146 314.379 123.62 312.129 123.62ZM312.129 118.41C313.195 118.41 314.26 118.173 315.208 117.581C316.155 116.989 316.984 116.279 317.576 115.213C318.168 114.147 318.405 112.845 318.405 111.305C318.405 109.056 317.813 107.279 316.628 106.095C315.444 104.911 314.023 104.201 312.247 104.201C310.471 104.201 309.05 104.793 307.866 106.095C306.682 107.279 306.09 109.056 306.09 111.305C306.09 113.555 306.682 115.331 307.748 116.515C308.932 117.7 310.353 118.41 312.129 118.41ZM328.469 111.187C328.469 108.819 328.943 106.687 329.89 104.793C330.838 102.898 332.14 101.477 333.798 100.53C335.456 99.5828 337.35 98.9907 339.363 98.9907C341.139 98.9907 342.679 99.346 343.981 100.056C345.284 100.767 346.349 101.714 347.178 102.78V99.346H353.217V123.146H347.178V119.712C346.349 120.778 345.284 121.725 343.981 122.554C342.679 123.265 341.021 123.62 339.245 123.62C337.232 123.62 335.456 123.146 333.798 122.081C332.14 121.015 330.838 119.594 329.89 117.7C328.943 115.805 328.469 113.674 328.469 111.187ZM347.178 111.305C347.178 109.884 346.941 108.582 346.349 107.516C345.757 106.451 345.047 105.622 343.981 105.148C343.034 104.556 341.968 104.319 340.903 104.319C339.837 104.319 338.771 104.556 337.824 105.148C336.877 105.74 336.048 106.451 335.456 107.516C334.864 108.582 334.627 109.766 334.627 111.187C334.627 112.608 334.864 113.91 335.456 114.976C336.048 116.042 336.877 116.871 337.824 117.463C338.771 118.055 339.837 118.292 340.903 118.292C341.968 118.292 343.034 118.055 343.981 117.463C344.928 116.871 345.757 116.042 346.349 115.094C346.941 114.029 347.178 112.726 347.178 111.305ZM366.242 103.135C367.071 101.833 368.018 100.885 369.203 100.175C370.505 99.4644 371.926 99.1091 373.465 99.1091V105.385H371.926C370.031 105.385 368.61 105.859 367.663 106.687C366.716 107.635 366.242 109.174 366.242 111.305V123.146H360.203V99.346H366.242V103.135ZM377.136 111.187C377.136 108.819 377.61 106.687 378.557 104.793C379.504 102.898 380.807 101.477 382.464 100.53C384.122 99.5828 386.017 98.9907 388.03 98.9907C389.569 98.9907 391.108 99.346 392.411 100.056C393.832 100.767 394.898 101.596 395.726 102.78V91.5309H401.884V123.383H395.726V119.831C395.016 121.015 393.95 121.962 392.648 122.673C391.345 123.383 389.687 123.738 387.911 123.738C385.898 123.738 384.122 123.265 382.464 122.199C380.807 121.133 379.504 119.712 378.557 117.818C377.61 115.805 377.136 113.674 377.136 111.187ZM395.845 111.305C395.845 109.884 395.608 108.582 395.016 107.516C394.424 106.451 393.713 105.622 392.648 105.148C391.7 104.556 390.635 104.319 389.451 104.319C388.267 104.319 387.319 104.556 386.372 105.148C385.425 105.74 384.596 106.451 384.004 107.516C383.412 108.582 383.175 109.766 383.175 111.187C383.175 112.608 383.412 113.91 384.004 114.976C384.596 116.042 385.425 116.871 386.372 117.463C387.319 118.055 388.385 118.292 389.451 118.292C390.516 118.292 391.582 118.055 392.648 117.463C393.595 116.871 394.424 116.042 395.016 115.094C395.608 114.029 395.845 112.726 395.845 111.305Z" fill="#1347FF"/>
<path d="M279.448 30.3131C280.513 30.3131 281.579 30.4315 282.645 30.3131C283.829 30.1946 284.658 30.6683 285.605 31.3787C290.697 35.8783 295.788 40.3779 300.88 44.8775C301.117 45.1143 301.354 45.3511 301.709 45.5879C302.064 45.3511 302.301 45.1143 302.538 44.8775C307.748 40.2595 312.958 35.5231 318.286 30.9051C318.523 30.6683 318.76 30.5499 318.997 30.4315C319.233 30.3131 319.589 30.3131 319.944 30.3131C321.246 30.3131 322.549 30.3131 323.851 30.3131V71.5197C323.141 71.7566 313.905 71.7566 312.839 71.5197V50.5612L312.603 50.4428C309.05 53.6398 305.38 56.8369 301.709 60.1524C298.038 56.9553 294.367 53.6398 290.697 50.4428L290.46 50.5612C290.46 52.3373 290.46 53.9951 290.46 55.7712C290.46 57.5474 290.46 59.2051 290.46 60.9813V71.5197H279.448C279.329 70.8093 279.211 32.5628 279.448 30.3131Z" fill="#061431"/>
<path d="M179.391 30.1946H190.048C190.285 30.905 190.285 70.5724 190.048 71.5197H179.273C179.154 68.9147 179.273 66.3096 179.273 63.7046C179.273 61.0996 179.273 58.4946 179.273 55.8896H166.011V71.4013C165.182 71.6381 156.064 71.6381 155.117 71.4013V30.1946H165.893V44.759C166.721 44.9958 178.089 44.9958 179.154 44.759C179.154 43.5749 179.154 42.3908 179.154 41.2067C179.154 40.0226 179.154 38.7201 179.154 37.536C179.154 36.3519 179.154 35.1678 179.154 33.8653C179.391 32.7996 179.391 31.4971 179.391 30.1946Z" fill="#061431"/>
<path d="M202.836 71.6381V30.4314C203.428 30.1946 226.755 30.1946 228.295 30.313V39.0753C227.939 39.0753 227.584 39.1938 227.229 39.1938C223.085 39.1938 218.94 39.1938 214.796 39.1938H213.612V46.0615H226.637V55.1791H213.73C213.493 56.008 213.493 61.3364 213.612 62.8758C213.967 62.8758 214.322 62.9942 214.677 62.9942C218.822 62.9942 222.966 62.9942 227.11 62.9942H228.295V71.7565H202.836V71.6381Z" fill="#061431"/>
<path d="M241.201 71.6381C240.964 70.5724 241.083 31.0235 241.201 30.1946H251.74V60.7444C252.213 60.7444 252.569 60.7444 252.924 60.7444C257.068 60.7444 261.213 60.7444 265.475 60.7444C265.831 60.7444 266.186 60.7444 266.659 60.7444V71.5197H241.201V71.6381Z" fill="#061431"/>
<path d="M91.531 80.5188C95.0833 80.5188 98.0435 76.6113 98.0435 71.6381C98.0435 66.6649 95.0833 62.7573 91.531 62.7573C87.9787 62.7573 85.0184 66.6649 85.0184 71.6381C85.0184 76.6113 87.9787 80.5188 91.531 80.5188Z" fill="#1347FF"/>
<path d="M78.7428 71.6381C78.7428 76.4929 75.7825 80.5188 72.2302 80.5188C68.6779 80.5188 65.7177 76.6113 65.7177 71.6381C65.7177 66.7833 68.6779 62.7573 72.2302 62.7573C75.7825 62.7573 78.7428 66.7833 78.7428 71.6381Z" fill="#1347FF"/>
<path fill-rule="evenodd" clip-rule="evenodd" d="M42.9828 54.587L49.969 47.8376H113.792L120.778 54.4686V92.9519L113.792 99.7012H49.969L42.9828 92.9519V54.587ZM54.4686 55.1791L51.7452 57.7841V89.8732L54.4686 92.3598H109.411L112.016 89.7548V57.6657L109.411 55.0607H54.4686V55.1791Z" fill="#1347FF"/>
<path fill-rule="evenodd" clip-rule="evenodd" d="M132.027 42.8644L127.409 47.6008L120.423 40.8514L125.041 36.115C130.014 30.905 137.119 37.7728 132.027 42.8644Z" fill="#1347FF"/>
<path fill-rule="evenodd" clip-rule="evenodd" d="M86.6762 31.6155V38.1281H76.9666V31.6155C76.9666 24.3925 86.7946 24.3925 86.6762 31.6155Z" fill="#1347FF"/>
<path fill-rule="evenodd" clip-rule="evenodd" d="M77.0849 115.805V109.292H86.7946V115.805C86.7946 123.028 76.9665 123.028 77.0849 115.805Z" fill="#1347FF"/>
<path fill-rule="evenodd" clip-rule="evenodd" d="M38.7201 36.115L43.3381 40.8514L36.3519 47.6008L31.7339 42.8644C26.6423 37.7728 33.7469 30.905 38.7201 36.115Z" fill="#1347FF"/>
<path fill-rule="evenodd" clip-rule="evenodd" d="M31.6155 104.556L36.2336 99.8197L43.2197 106.569L38.6017 111.305C33.6284 116.516 26.5238 109.648 31.6155 104.556Z" fill="#1347FF"/>
<path fill-rule="evenodd" clip-rule="evenodd" d="M124.923 111.305L120.305 106.569L127.291 99.8197L131.909 104.556C137 109.648 129.896 116.516 124.923 111.305Z" fill="#1347FF"/>
</svg>
