<?xml version="1.0" encoding="UTF-8" standalone="no"?>
<svg
   width="179"
   height="164"
   viewBox="0 0 179 164"
   fill="none"
   version="1.1"
   id="svg20"
   sodipodi:docname="logo.svg"
   inkscape:version="1.1.2 (0a00cf5339, 2022-02-04)"
   xmlns:inkscape="http://www.inkscape.org/namespaces/inkscape"
   xmlns:sodipodi="http://sodipodi.sourceforge.net/DTD/sodipodi-0.dtd"
   xmlns="http://www.w3.org/2000/svg"
   xmlns:svg="http://www.w3.org/2000/svg">
  <defs
     id="defs24" />
  <sodipodi:namedview
     id="namedview22"
     pagecolor="#ffffff"
     bordercolor="#666666"
     borderopacity="1.0"
     inkscape:pageshadow="2"
     inkscape:pageopacity="0.0"
     inkscape:pagecheckerboard="0"
     showgrid="false"
     inkscape:zoom="3.9268293"
     inkscape:cx="39.090062"
     inkscape:cy="109.24845"
     inkscape:window-width="3840"
     inkscape:window-height="2059"
     inkscape:window-x="0"
     inkscape:window-y="0"
     inkscape:window-maximized="1"
     inkscape:current-layer="svg20" />
  <rect
     style="fill:#ffffff;fill-opacity:1;stroke-width:22.5327"
     id="rect967"
     width="113.34328"
     height="68.482964"
     x="32.284447"
     y="47.989918" />
  <path
     d="M106.129 93.4776C112.242 93.4776 117.336 86.7533 117.336 78.1951C117.336 69.637 112.242 62.9127 106.129 62.9127C100.016 62.9127 94.9216 69.637 94.9216 78.1951C94.9216 86.7533 100.016 93.4776 106.129 93.4776Z"
     fill="#1347FF"
     id="path2" />
  <path
     d="M84.1221 78.1951C84.1221 86.5495 79.0279 93.4776 72.915 93.4776C66.802 93.4776 61.7078 86.7533 61.7078 78.1951C61.7078 69.8408 66.802 62.9127 72.915 62.9127C79.0279 62.9127 84.1221 69.8408 84.1221 78.1951Z"
     fill="#1347FF"
     id="path4" />
  <path
     fill-rule="evenodd"
     clip-rule="evenodd"
     d="M22.5848 48.8529L34.607 37.2383H144.437L156.459 48.6492V114.873L144.437 126.488H34.607L22.5848 114.873V48.8529ZM42.3501 49.8717L37.6635 54.3546V109.575L42.3501 113.854H136.897L141.38 109.371V54.1508L136.897 49.668H42.3501V49.8717Z"
     fill="#1347FF"
     id="path6" />
  <path
     fill-rule="evenodd"
     clip-rule="evenodd"
     d="M175.817 28.68L167.87 36.8306L155.848 25.2159L163.794 17.0653C172.353 8.09963 184.579 19.918 175.817 28.68Z"
     fill="#1347FF"
     id="path8" />
  <path
     fill-rule="evenodd"
     clip-rule="evenodd"
     d="M97.7744 9.32228V20.5294H81.0656V9.32228C81.0656 -3.10743 97.9781 -3.10743 97.7744 9.32228Z"
     fill="#1347FF"
     id="path10" />
  <path
     fill-rule="evenodd"
     clip-rule="evenodd"
     d="M81.2693 154.2V142.993H97.9781V154.2C97.9781 166.629 81.0655 166.629 81.2693 154.2Z"
     fill="#1347FF"
     id="path12" />
  <path
     fill-rule="evenodd"
     clip-rule="evenodd"
     d="M15.2493 17.0653L23.1961 25.2159L11.1739 36.8306L3.22708 28.68C-5.53484 19.918 6.6911 8.09963 15.2493 17.0653Z"
     fill="#1347FF"
     id="path14" />
  <path
     fill-rule="evenodd"
     clip-rule="evenodd"
     d="M3.0233 134.842L10.9702 126.691L22.9923 138.306L15.0455 146.457C6.48732 155.422 -5.73862 143.604 3.0233 134.842Z"
     fill="#1347FF"
     id="path16" />
  <path
     fill-rule="evenodd"
     clip-rule="evenodd"
     d="M163.591 146.457L155.644 138.306L167.666 126.691L175.613 134.842C184.375 143.604 172.149 155.422 163.591 146.457Z"
     fill="#1347FF"
     id="path18" />
</svg>
