<svg width="905" height="859" viewBox="0 0 905 859" fill="none" xmlns="http://www.w3.org/2000/svg">
<path d="M518.527 0.157461C518.519 0.157461 518.495 0.165041 518.479 0.165041L502.177 1.28686L488.759 5.09948L481.011 8.78317L473.73 12.8764L464.492 17.6365L455.664 21.8358L445.564 27.1796L435.279 33.3799L429.802 37.3291L424.535 41.7027L415.691 48.7141L406.074 55.0054L393.453 61.1451L368.082 73.9172L363.435 76.4565L359.512 79.7537L350.016 88.7661L339.586 97.4451L336.002 100.083L332.393 102.607L321.488 111.195L311.613 119.639L307.53 124.179L303.857 129.584L298.227 137.285L292.823 143.561L285.558 152.271L278.881 162.435L266.558 188.48L261.339 198.569L255.733 207.513L250.538 213.91L244.513 220.626L240.067 226.122C240.019 226.182 239.979 226.25 239.963 226.326L238.159 232.648L236.926 244.245L237.724 254.319L235.928 266.446L231.143 274.769C231.111 274.83 231.087 274.898 231.079 274.966L229.669 284.653L230.257 295.189L227.672 302.807L224.934 307.037L219.304 315.162L217.016 320.741L213.633 326.57L209.8 334.324L207.158 341.245L204.315 352.258L202.092 361.961L201.278 372.997L200.272 383.23L199.498 394.221L195.721 403.263L190.534 411.177L184.679 420.879L182.262 424.654L179.307 427.951L172.815 437.706C172.767 437.767 172.75 437.835 172.734 437.911L170.729 448.72C170.705 448.788 170.705 448.849 170.729 448.924L172.936 460.711L173.129 469.936L169.923 479.956L168.707 490.22L164.318 499.823L160.282 510.534L157.27 516.946L152.881 523.616L147.694 529.733L142.684 534.903L133.881 541.869L123.877 548.001L116.298 551.472C116.25 551.495 116.21 551.526 116.161 551.563L109.911 556.756C109.855 556.801 109.799 556.869 109.766 556.938L105.143 566.064L99.9079 575.88L96.219 580.185L90.8872 583.217L78.8299 589.38L64.6142 594.253L56.6646 595.633C56.5599 595.656 56.4713 595.694 56.3827 595.754L51.1473 599.825L42.5695 607.344L29.4652 611.437L11.1659 602.432L-2.05121 593.624C-2.30895 593.45 -2.71972 593.495 -2.89692 593.761C-3.07412 594.026 -3.00968 594.382 -2.72778 594.572L10.5537 603.418L29.1509 612.574C29.3119 612.65 29.4891 612.658 29.6261 612.612L43.1009 608.405C43.1814 608.382 43.262 608.337 43.3264 608.276L51.9847 600.697L57.0669 596.747L64.9599 595.368L79.361 590.426L91.5148 584.21L96.9594 581.11C97.0238 581.072 97.0722 581.034 97.1205 580.981L100.954 576.494L106.262 566.564L110.829 557.537L116.918 552.466L124.497 548.994L134.621 542.779L143.537 535.714L148.619 530.469L153.871 524.269L158.349 517.47L161.418 510.943L165.453 500.233L169.858 490.584C169.882 490.531 169.891 490.478 169.907 490.417L171.115 480.169L174.32 470.164C174.345 470.103 174.345 470.05 174.345 469.989L174.143 460.583L171.944 448.804L173.918 438.207L180.297 428.611L183.261 425.306L185.733 421.44L191.573 411.746L196.792 403.756L200.666 394.562C200.698 394.501 200.714 394.448 200.714 394.388L201.528 383.298L202.534 373.066L203.332 362.098L205.539 352.502L208.358 341.564L210.951 334.75L214.753 327.079L218.16 321.212L220.415 315.671L225.98 307.629L228.799 303.263L231.481 295.418C231.506 295.35 231.514 295.281 231.506 295.213L230.91 284.685L232.295 275.21L237.079 266.887C237.111 266.826 237.135 266.758 237.144 266.69L238.956 254.335L238.158 244.246L239.367 232.838L241.122 226.721L245.472 221.34L251.496 214.624L256.748 208.143L262.418 199.101L267.669 188.959L279.96 162.966L286.556 152.93L293.773 144.282L299.194 137.975L304.864 130.221L308.496 124.87L312.467 120.443L322.277 112.068L333.134 103.518L336.718 101.016L340.351 98.3481L350.845 89.6161L360.341 80.6037L364.143 77.3899L368.678 74.9265L400.057 59.2133L406.702 55.9843L416.432 49.6248L425.332 42.5755L430.575 38.2171L435.98 34.3211L446.192 28.1662L456.236 22.8527L465.055 18.6533L474.334 13.8705L481.607 9.79248L489.218 6.16172L502.403 2.40969L518.382 1.32577L535.924 11.3388L549.544 21.6778L565.621 35.132L575.342 48.3059L578.129 55.5296L580.134 61.6769L587.206 77.3143L596.903 91.9889L603.186 99.7582L610.265 107.088L624.578 120.171L638.898 131.571L654.169 145.442L665.163 160.928L667.7 165.294L668.489 169.554L670.688 183.023L670.293 190.906L668.087 199.646L666.29 206.088L664.285 211.084L659.259 221.733L654.837 230.571L650.013 239.971L644.778 249.931L641.387 255.077L629.99 267.069L624.699 274.285L619.818 283.911C619.785 283.972 619.769 284.025 619.761 284.093L618.352 294.902C618.32 295.129 618.44 295.349 618.658 295.47L637.577 305.862L659.349 315.989L668.192 320.613C668.241 320.636 668.297 320.658 668.354 320.674L677.406 322.637L696.157 325.729L712.499 327.42L729.22 328.686L746.295 331.21L759.93 334.151L774.162 338.903L787.492 342.147L798.993 344.399L818.323 348.052L836.429 351.698L852.135 354.647L869.959 360.521L884.368 368.063L901.395 382.449L903.763 396.594L901.596 405.075L894.218 414.808L884.239 423.57L880.832 426.216L877.78 429.058L869.887 438.23L864.788 447.447L859.69 454.42L849.985 458.559L839.949 462.341C839.885 462.364 839.828 462.402 839.78 462.44L831.935 468.746L826.667 474.803L819.282 479.813L810.656 484.846L801.409 490.031L794.136 494.829C794.088 494.859 794.048 494.889 794.016 494.935L788.579 501.113L783.134 507.578L778.689 513.498L772.43 522.791L766.97 532.804L763.724 539.709L759.133 547.092L754.735 552.656L749.403 556.772L739.207 562.767L729.147 568.376L721.697 572.879L706.764 583.286L697.969 587.735L686.177 591.919L671.132 595.694L659.405 595.808L641.943 594.929L628.074 593.943L611.16 592.821L598.934 594.792L579.732 600.568L574.231 602.986L561.127 609.027L548.828 615.212L542.594 618.449L535.579 621.519L525.141 625.718L515.894 629.22L504.957 634.723L495.421 641.651L490.153 646.025L485.667 650.997L480.585 658.933L477.121 666.293L470.952 676.139L461.754 684.652L457.944 688.009L454.473 691.989L447.224 700.554L440.958 708.293L427.845 726.993L425.646 729.926L423.617 732.89L416.376 742.842L409.941 751.544L403.908 759.253L396.869 767.659L393.268 771.57L388.927 774.723L378.835 783.167L370.104 792.907L366.891 796.712L363.282 800.472L354.656 808.59L346.207 816.026L340.183 821.218L334.697 827.456L329.253 833.922L324.042 839.508L308.135 857.92C308.046 858.018 307.998 858.147 307.998 858.283C307.998 858.602 308.272 858.928 308.61 858.928C308.924 858.928 309.174 858.761 309.222 858.496L324.984 840.259L330.203 834.665L335.664 828.184L341.084 822.014L347.061 816.882L355.518 809.431L364.176 801.283L367.833 797.471L371.07 793.65L379.729 783.978L389.716 775.618L394.114 772.411L397.827 768.402L404.898 759.958L410.955 752.219L417.407 743.502L424.655 733.534L426.677 730.578L428.868 727.652L441.972 708.968L448.182 701.282L455.423 692.732L458.837 688.813L462.607 685.493L471.877 676.921C471.909 676.89 471.942 676.845 471.982 676.807L478.232 666.839L481.679 659.487L486.665 651.687L491.038 646.851L496.217 642.561L505.641 635.709L516.433 630.289L525.623 626.81L536.102 622.588L543.173 619.488L549.44 616.244L561.722 610.074L574.794 604.047L580.215 601.667L586.98 599.59L599.247 595.945L611.248 593.997L641.893 596.111L659.419 596.953L671.34 596.824L686.586 593.011L698.515 588.782L707.455 584.256L722.42 573.827L729.83 569.354L739.889 563.753L750.158 557.712L755.66 553.459L760.194 547.744L764.849 540.255L768.111 533.32L773.524 523.383L779.734 514.158L784.107 508.245L789.528 501.81L794.892 495.708L802.06 490.979L811.282 485.809L819.957 480.746L827.431 475.675C827.479 475.652 827.512 475.614 827.544 475.576L832.787 469.535L840.479 463.35L850.45 459.59L860.341 455.368C860.445 455.323 860.534 455.254 860.598 455.163L865.834 448.001L870.9 438.821L878.68 429.794L881.66 427.035L885.051 424.404L895.135 415.536L902.657 405.629C902.706 405.568 902.738 405.5 902.762 405.424L904.985 396.715C904.993 396.647 905.009 396.563 904.993 396.495L902.577 382.04C902.553 381.911 902.488 381.79 902.375 381.699L885.067 367.1L870.457 359.445L852.463 353.51L836.677 350.539L818.571 346.893L799.241 343.239L787.772 340.988L774.523 337.766L760.267 333.006L746.518 330.043L729.354 327.511L712.61 326.245L696.324 324.57L677.638 321.485L668.706 319.545L659.911 314.951L638.148 304.832L619.607 294.652L620.96 284.313L625.752 274.854L630.939 267.774L642.36 255.753L645.847 250.477L651.115 240.464L655.939 231.057L660.369 222.204L665.411 211.524L667.441 206.438L669.253 199.927L671.484 191.066L671.886 182.955L669.68 169.364L668.866 165.006C668.858 164.945 668.834 164.885 668.81 164.832L666.192 160.337L655.085 144.715L639.702 130.722L625.382 119.322L611.125 106.293L604.102 99.0234L597.892 91.3375L588.276 76.7917L581.277 61.2833L579.279 55.1664L576.468 47.8519C576.444 47.8064 576.42 47.7609 576.404 47.723L566.537 34.3825L550.332 20.8069L536.624 10.3997L518.84 0.250196C518.751 0.189557 518.639 0.159237 518.526 0.159237L518.527 0.157461Z" fill="#DCDDDF"/>
<path d="M505.27 26.5474L489.516 27.1007L479.303 29.7915L469.944 34.1802L462.453 38.4174L455.398 42.6394L447.078 49.143L438.838 55.4495L431.67 59.4744L424.26 62.8171L411.606 68.1534L398.502 73.77L393.259 76.1653L388.007 78.841L376.675 86.4588L367.123 96.0776L364.731 99.1095L361.034 101.012L348.34 108.039L336.839 115.217L331.789 118.741L327.673 123.031L320.77 132.499L314.335 141.776L309.905 147.795L299.08 159.824L295.383 166.525L292.114 177.159L288.9 186.831L286.081 196.677L281.289 206.274L277.519 210.943L261.234 230.446L256.329 239.527L253.453 250.313L249.426 270.983L248.009 279.715L247.002 291.964L245.818 297.429L243.047 302.265L238.029 310.815L235.355 319.645C235.331 319.714 235.323 319.789 235.331 319.858L236.523 332.107L234.163 339.921L228.163 348.835C228.139 348.881 228.106 348.926 228.098 348.979L224.684 359.652C224.675 359.697 224.659 359.75 224.659 359.796L224.257 369.483L224.869 381.467L226.472 392.609V402.948L222.493 412.249L217.274 422.883L215.244 427.833L212.828 433.29L208.422 441.681L205.184 449.011L201.745 459.168L200.11 469.227L196.115 478.785L192.483 489.351L189.076 496.734L183.889 504.518L180.281 509.552L177.236 514.35L170.608 524.014L160.524 541.038L153.951 548.103L148.571 552.529L143.69 557.782C143.642 557.835 143.602 557.896 143.577 557.964L139.961 567.788L136.925 577.793L135.338 584.706L132.664 587.768L124.682 592.915L119.044 596.712L113.398 600.79L104.716 607.536L94.1805 612.236L86.2955 616.321L79.5783 621.142L70.5334 627.456L62.9864 635.4L58.9353 640.046L54.3766 643.768L43.5517 651.037L32.9845 658.822L22.3531 660.603L3.10348 658.39L-1.99495 654.297C-2.22852 654.084 -2.6393 654.107 -2.8487 654.357C-3.07421 654.6 -3.04201 654.964 -2.78427 655.168L2.45107 659.383C2.53967 659.459 2.65243 659.504 2.76518 659.519L22.2968 661.763C22.3774 661.763 22.4096 661.77 22.4901 661.755L33.3633 659.928C33.4519 659.913 33.5405 659.868 33.621 659.815L44.2849 651.954L55.142 644.67L59.8134 640.85L63.905 636.15L71.3472 628.305L80.3036 622.067L86.9565 617.292L94.7288 613.267L105.36 608.507L114.147 601.692L119.761 597.629L125.375 593.855L133.413 588.67C133.462 588.64 133.502 588.602 133.534 588.556L136.353 585.327C136.409 585.259 136.458 585.176 136.474 585.085L138.085 578.073L141.097 568.144L144.673 558.457L149.417 553.34L154.797 548.914L161.499 541.697L171.639 524.612L178.267 514.963L181.304 510.173L184.904 505.147L190.148 497.264L193.619 489.745L197.259 479.163L201.27 469.514L202.914 459.418L206.304 449.397L209.51 442.151L213.916 433.76L216.348 428.249L218.37 423.322L223.581 412.695L227.616 403.258C227.648 403.19 227.664 403.114 227.664 403.039L227.68 392.51L226.077 381.345L225.465 369.467L225.868 359.909L229.243 349.388L235.243 340.467C235.275 340.421 235.3 340.368 235.308 340.315L237.724 332.311C237.748 332.242 237.756 332.167 237.748 332.098L236.556 319.849L239.141 311.246L246.946 297.89C246.97 297.837 246.994 297.784 247.002 297.731L248.211 292.115L249.225 279.828L250.635 271.164L254.646 250.547L257.465 239.912L262.249 231.051L268.008 224.267L278.487 211.632L282.32 206.849L287.217 197.063L290.069 187.141L293.282 177.477L296.504 166.933L300.08 160.445L310.873 148.484L315.351 142.405L321.786 133.127L328.632 123.736L332.603 119.589L337.54 116.148L348.994 109.008L361.647 102.012L365.448 100.056C365.529 100.018 365.593 99.9575 365.65 99.8893L368.074 96.8044L377.49 87.3145L388.661 79.8028L393.824 77.1801L399.035 74.8075L412.115 69.1985L424.776 63.8623L432.25 60.4892L439.531 56.396L447.851 50.0366L456.115 43.571L463.098 39.4021L470.532 35.1953L479.738 30.8595L489.709 28.2292L505.262 27.6911L517.134 28.3884L529.288 35.0587L545.775 44.7307L559.088 56.9419L566.482 69.6458L571.323 78.484L577.798 87.6557L589.292 101.724L603.411 117.187L611.296 124.38L624.215 133.961L634.814 142.049L639.808 148.583L647.194 163.098L651.39 175.378L653.363 186.437L651.567 197.155L648.362 207.183L644.56 216.119L637.73 230.119L635.926 233.47L629.893 243.839L623.893 251.942L616.893 259.613L605.416 271.824L602.549 275.811L595.695 285.786C595.663 285.847 595.63 285.915 595.614 285.991L593.609 295.958C593.56 296.178 593.657 296.406 593.858 296.534L608.147 305.933C608.195 305.964 608.251 305.994 608.308 306.009L626.825 311.626L637.416 314.696L647.403 321.108L669.166 334.312C669.223 334.35 669.287 334.373 669.368 334.388L692.112 338.883L700.062 339.179L724.611 340.301L735.653 341.278L754.363 343.659L768.676 344.78L788.127 348.419L822.542 355.574L841.63 360.342L852.6 365.079L878.091 380.345L881.466 382.695L882.038 387.637L883.439 400.47L882.481 406.101L878.413 409.755L870.915 417.653L865.438 425.437L859.599 434.147L854.331 444.888L852.221 449.019L846.632 450.906L832.706 456.53L821.14 463.883L816.493 466.975L811.475 470.053L790.155 482.681L783.502 486.759L777.8 491.436L770.084 500.062L760.185 514.152L757.535 518.829L751.905 527.645L746.887 534.929L739.872 543.305L730.69 550.953L726.26 554.189L721.468 557.108L710.394 564.134L699.907 571.305L694.076 575.087L686.94 578.119L676.574 582.008L664.275 583.114L645.638 580.181L633.339 578.635L607.493 577.369C607.429 577.369 607.356 577.384 607.292 577.407L603.063 578.809L588.969 583.721L576.726 587.366L563.815 591.293L550.485 596.644L546.04 598.615L541.948 601.033L529.883 607.764L518.043 613.358L502.74 621.082L493.84 626.009L486.14 631.527L480.22 637.485C480.188 637.53 480.156 637.568 480.115 637.621L476.7 644.079L471.675 653.91L467.229 663.764L463.282 670.783L456.122 676.46L448.929 681.054L443.203 686.746L425.443 707.992L423.22 710.956L416.165 720.938L410.124 729.792L404.091 738.205L394.644 750.977L391.873 753.873L382.031 763.257L372.197 771.655L367.767 775.293L356.829 788.141L349.435 794.971L342.605 800.997L335.55 807.606L325.853 818.165L317.798 827.155L305.161 839.048L302.471 842.337L294.232 851.721L287.039 857.982C286.79 858.202 286.781 858.566 287.007 858.801C287.241 859.021 287.619 859.043 287.877 858.831L295.126 852.509L303.437 843.05L306.063 839.806L309.027 837.054L318.676 827.935L326.763 818.908L336.428 808.387L343.443 801.823L350.273 795.797L357.723 788.907L368.637 776.081L373.002 772.504L382.869 764.075L392.759 754.653L395.586 751.689L405.106 738.857L411.147 730.428L417.188 721.574L424.227 711.614L426.426 708.681L428.826 705.755L444.13 687.511L449.719 681.939L456.871 677.384L464.169 671.593C464.225 671.547 464.281 671.487 464.314 671.426L468.341 664.263L472.795 654.387L477.813 644.586L481.187 638.211L486.97 632.382L494.533 626.97L503.336 622.096L518.607 614.38L530.471 608.778L542.593 602.017L546.628 599.622L550.977 597.689L564.234 592.368L577.081 588.449L589.348 584.795L607.583 578.512H608.686L633.212 579.77L645.447 581.316L664.14 584.257C664.197 584.265 664.253 584.265 664.302 584.265L676.77 583.143C676.826 583.135 676.882 583.128 676.939 583.105L687.417 579.171L694.682 576.071L700.626 572.228L711.105 565.057L722.155 558.046L726.979 555.105L731.442 551.846L740.736 544.099L747.864 535.602L752.93 528.257L758.576 519.396L761.202 514.735L763.989 510.71L771.036 500.75L778.647 492.238L784.221 487.667L790.793 483.642L812.113 471.014L817.155 467.921L821.802 464.821L833.256 457.529L847.044 451.966L852.843 450.01C853.005 449.965 853.125 449.858 853.19 449.714L855.413 445.364L860.648 434.684L866.447 426.05L871.868 418.341L879.261 410.542L883.458 406.79C883.562 406.699 883.627 406.585 883.651 406.464L884.658 400.567V400.415L882.636 382.299C882.612 382.14 882.523 381.996 882.386 381.897L878.77 379.373L853.174 364.047L842.035 359.241L822.817 354.435L788.37 347.272L768.838 343.619L754.485 342.482L735.775 340.102L724.693 339.124L700.111 338.002L692.25 337.722L669.714 333.287L648.064 320.152L638.02 313.701C637.964 313.671 637.907 313.641 637.851 313.625L627.187 310.54L608.759 304.962L594.881 295.82L596.79 286.33L603.58 276.462L606.391 272.543L609.967 268.662L617.812 260.385L624.86 252.661L630.94 244.474L637.021 234.029L638.834 230.641L640.461 227.397L645.696 216.581L649.53 207.568L652.776 197.419L654.604 186.534C654.612 186.473 654.604 186.413 654.604 186.352L652.598 175.126L648.346 162.695L640.847 148.005L635.749 141.328C635.717 141.282 635.684 141.252 635.636 141.214L624.972 133.073L612.093 123.522L604.289 116.405L590.226 101.003L578.789 86.9798L572.37 77.8915L567.569 69.0989L560.127 56.3118C560.095 56.2588 560.063 56.2133 560.015 56.1754L546.532 43.8201L529.924 34.065L517.625 27.3188C517.544 27.2734 517.456 27.2506 517.351 27.243L505.27 26.5474Z" fill="#DCDDDF"/>
<path d="M491.207 54.3345L484.869 54.7514C484.804 54.759 484.732 54.7665 484.675 54.7969L479.44 56.904L466.787 61.2473L455.736 64.6128L443.583 70.1157L425.493 77.4076L421.095 78.9387L407.177 84.4265L396.038 90.4903L389.547 94.8715L383.659 99.8212L375.033 106.408L365.811 112.555L358.771 116.899L351.901 121.545L343.976 129.049L336.316 137.501L333.264 141.458L330.436 145.407L323.389 155.382L316.366 164.197C316.334 164.243 316.301 164.281 316.285 164.326L312.669 172.891L309.818 184.201L306.991 204.893L305.646 209.153L302.343 212.276L293.097 220.546L285.792 229.028L280.516 236.941L273.638 251.047L272.398 255.201L269.361 266.866L266.961 275.416L263.344 285.914L261.121 295.655L256.925 305.531L251.706 315.461C251.674 315.529 251.65 315.612 251.65 315.688L251.247 324.39L253.446 336.927L252.455 347.387L248.46 358.06L247.018 366.299L246.817 378.874L247.429 388.046L249.04 400.992L248.033 409.057L244.852 416L243.249 419.062L240.873 422.519L238.594 428.385L235.952 439.694L233.351 448.934L231.329 459.645L227.181 468.263L220.416 474.789L214.319 482.862L211.073 488.243L208.817 493.223L203.405 503.577L198.17 512.673L192.951 521.087L182.15 532.934C182.101 532.98 182.069 533.033 182.045 533.093L180.241 537.3L175.022 548.087L170.576 557.501C170.552 557.561 170.528 557.63 170.528 557.705L169.916 568.378L167.54 577.17L162.353 585.523C162.329 585.569 162.304 585.622 162.288 585.675L159.268 597.189L157.118 603.336L151.987 608.301L143.619 613.706C143.538 613.759 143.474 613.834 143.425 613.918L139.197 621.778L135.186 631.981L126.809 640.887L124.014 643.358H120.229L107.173 642.805L95.704 642.244L92.6111 642.388C92.4903 642.395 92.3615 642.433 92.2648 642.509L89.0511 644.897L77.0182 652.59L59.5323 662.399L55.199 666.113L45.7272 674.83L33.2995 687.223L28.3945 688.996L13.9291 693.772L-0.616861 697.38L-2.31631 697.251C-2.34047 697.251 -2.36463 697.243 -2.37269 697.243C-2.6868 697.243 -2.96066 697.471 -2.98483 697.774C-3.01704 698.092 -2.75929 698.365 -2.42908 698.395L-0.616861 698.539C-0.53632 698.539 -0.479942 698.539 -0.399396 698.524L14.2916 694.871L28.8295 690.08L33.8795 688.253C33.96 688.223 34.0406 688.178 34.105 688.109L46.5891 675.618L56.0286 666.931L60.2491 663.293L77.6624 653.538L89.7599 645.799L92.8608 643.502L95.6878 643.365L107.101 643.926L120.189 644.487L124.24 644.495C124.401 644.495 124.546 644.434 124.659 644.336L127.679 641.668L136.168 632.648C136.217 632.594 136.257 632.534 136.281 632.466L140.308 622.218L144.432 614.547L152.76 609.158L158.084 604.034C158.148 603.973 158.197 603.897 158.229 603.814L160.436 597.5L163.448 586.024L168.635 577.679C168.659 577.633 168.683 577.58 168.699 577.527L171.116 568.545L171.736 557.872L176.125 548.557L181.344 537.755L183.124 533.609L193.925 521.747L199.225 513.235L204.476 504.101L209.913 493.694L212.144 488.751L215.325 483.476L221.334 475.524L228.124 468.991C228.172 468.945 228.212 468.884 228.237 468.824L232.465 459.978L234.519 449.177L237.12 439.96L239.746 428.704L241.945 423.026L244.305 419.63L245.948 416.485L249.169 409.435C249.194 409.382 249.202 409.329 249.218 409.269L250.233 400.984L248.622 387.939L248.01 378.851L248.211 366.404L249.62 358.347L253.615 347.637L254.654 336.964V336.813L252.447 324.321L252.85 315.862L258.029 306.001L262.266 295.995L264.513 286.217L268.121 275.742L270.537 267.154L273.574 255.488L274.766 251.433L276.546 247.727L281.572 237.479L286.767 229.687L293.975 221.319L303.173 213.094L306.604 209.85C306.685 209.782 306.725 209.699 306.765 209.608L308.175 205.12L311.018 184.396L313.829 173.224L317.389 164.81L324.38 156.025L334.271 142.101L337.283 138.19L344.894 129.799L352.723 122.393L359.488 117.823L366.511 113.487L375.782 107.302L384.464 100.677L390.328 95.7497L396.723 91.4367L407.741 85.4333L421.562 79.991L425.96 78.4599L444.106 71.1453L456.22 65.6576L467.214 62.3147L479.907 57.9563L485.07 55.8795L491.215 55.4626L506.825 56.5844L515.668 57.4257L523.481 58.5475L542.763 64.801L555.932 78.0279L564.928 91.0047L571.581 99.873L578.637 108.59L590.952 121.536L606.295 134.089L618.087 144.693L625.698 156.275L631.086 167.994L636.096 182.403L637.473 186.761L636.491 190.506L632.882 201.853L628.887 209.774L623.668 219.438L619.609 229.315L615.211 237.403L608.615 245.884L605.578 250.106L602.582 253.881L594.343 263.401L585.717 272.217L581.456 277.455L576.994 283.526L572.934 290.742C572.886 290.818 572.87 290.894 572.87 290.977L572.475 297.018C572.467 297.147 572.507 297.284 572.588 297.397L579.829 306.796C579.877 306.849 579.933 306.903 579.99 306.94L595.293 316.347L610.008 324.503L627.478 336.684L638.166 343.438C638.214 343.468 638.254 343.491 638.311 343.506L649.579 347.015L667.346 350.964L684.373 351.677L699.869 352.101L716.549 353.504L730.669 353.928L746.592 353.936L760.47 354.216L775.628 353.087L792.799 355.467L813.289 359.954L819.805 361.751L845.096 376.873L854.198 383.073L857.548 389.819L861.688 401.932L858.128 412.134L852.522 422.731L850.517 426.809L847.553 430.644L839.152 438.868L831.179 446.092L823.978 449.693L816.955 452.914L803.681 458.667L792.099 466.581L789.232 469.006L785.712 470.901L772.995 478.921L761.276 487.653L758.231 490.199L755.549 493.201L747.881 502.919L741.623 512.075L736.38 520.375L727.528 533.556L724.596 536.255L713.57 545.214L701.327 553.605L697.921 555.697L694.868 557.971L683.028 565.528L669.562 570.902H657.408L639.785 568.522L623.636 567.393L608.503 567.249L594.118 569.219L579.958 572.88L570.937 574.556L551.97 579.763L545.035 582.886L532.889 589.935L519.841 596.803L515.83 598.758L511.795 600.873L499.504 607.619L488.027 614.085L482.341 618.041L476.872 622.271L469.543 630.632C469.494 630.677 469.462 630.738 469.438 630.798L465.218 641.327L461.786 650.18L456.237 664.847L452.621 666.712L439.911 674.451L429.932 684.077L426.887 687.488L416.207 699.851L409.555 707.999L403.498 716.307L395.017 729.534L392.455 732.406L383.998 742.093L375.96 750.643L370.749 755.821L364.725 760.99L358.064 767.471L352.208 773.808L344.96 781.524L332.33 792.719L328.835 797.002L320.781 806.545L311.978 815.345L307.942 819.567L303.521 823.911L288.234 838.358L281.984 844.543L268.726 855.89L266.495 858.02C266.262 858.24 266.27 858.611 266.503 858.831C266.729 859.051 267.124 859.059 267.373 858.824L269.58 856.717L282.829 845.369L289.096 839.169L304.399 824.714L308.829 820.356L312.864 816.134L321.715 807.296L329.802 797.715L333.233 793.493L337.381 789.771L345.838 782.328L353.135 774.573L358.966 768.252L365.587 761.817L371.612 756.647L376.863 751.424L384.934 742.844L396.016 730.201L398.078 726.896L404.513 716.929L410.538 708.674L417.158 700.564L427.814 688.224L430.827 684.866L440.669 675.353L453.234 667.712L457.019 665.764C457.156 665.704 457.252 665.59 457.301 665.454L458.71 661.8L462.939 650.567L466.37 641.729L470.55 631.299L477.735 623.09L483.091 618.959L488.697 615.047L500.118 608.62L512.384 601.889L516.395 599.789L520.406 597.834L533.494 590.943L545.608 583.909L552.382 580.855L571.213 575.693L580.241 574.01L594.369 570.356L608.584 568.401L623.581 568.552L639.649 569.674L657.32 572.054L669.692 572.062C669.772 572.062 669.861 572.047 669.925 572.017L683.601 566.544L695.586 558.911L698.639 556.637L702.021 554.56L714.32 546.124L725.419 537.104L728.472 534.269L730.976 530.509L737.428 520.966L742.671 512.674L748.897 503.57L756.516 493.914L759.11 490.995L762.066 488.524L773.712 479.838L786.349 471.864L789.949 469.931L792.873 467.475L804.31 459.653L817.495 453.953L824.551 450.716L831.815 447.062C831.864 447.04 831.904 447.002 831.952 446.964L840.007 439.665L848.472 431.365L851.548 427.378L853.61 423.209L859.248 412.551L862.905 402.091C862.937 401.978 862.937 401.849 862.905 401.735L858.676 389.38L855.229 382.437C855.181 382.346 855.116 382.27 855.036 382.217L845.781 375.903L820.387 360.72C820.339 360.698 820.282 360.675 820.226 360.66L813.581 358.833L793.011 354.331L775.654 351.935L760.423 353.057L746.586 352.769H730.679L716.616 352.352L699.936 350.95L684.407 350.525L667.494 349.828L649.895 345.909L638.764 342.445L628.165 335.752L610.679 323.556L595.94 315.378L580.749 306.047L573.702 296.898L574.072 291.19L578.043 284.141L582.441 278.161L586.645 272.976L595.263 264.176L603.543 254.602L606.579 250.79L609.624 246.56L616.253 238.01L620.731 229.786L624.79 219.909L629.985 210.275L634.02 202.256L637.677 190.803L638.692 186.99C638.7 186.945 638.7 186.755 638.7 186.71C638.7 186.657 638.7 186.596 638.676 186.543L637.266 182.056L632.24 167.578L626.78 155.739L619.088 144.02C619.063 143.974 619.031 143.944 618.983 143.906L607.111 133.241L591.8 120.727L579.565 107.864L572.55 99.1926L565.922 90.362L556.877 77.3322L543.539 63.9158C543.474 63.8476 543.378 63.7945 543.289 63.7642L523.758 57.4426L515.8 56.2981L506.916 55.4567L491.207 54.3345Z" fill="#DCDDDF"/>
<path d="M487.516 75.9516C487.508 75.9516 487.484 75.9591 487.468 75.9591L483.441 76.2396L474.928 77.7859L462.661 79.7566L453.213 81.0224L438.442 85.108L426.32 89.474L416.816 93.5521L407.707 98.7746L400.853 102.853L394.377 107.082L384.905 113.548L375.627 120.438L370.327 125.835L364.866 132.035L359.059 138.046L353.816 143.67L345.778 152.084L337.877 162.089L335.621 165.955L333.769 170.95L330.338 180.789L328.904 189.589L329.105 201.8L326.568 209.304L317.427 217.907L308.72 227.625L305.877 231.308L302.865 234.947L296.018 243.808L291.339 252.305L287.876 262.075L285.25 272.505L282.238 281.737L278.227 292.524L269.577 311.716L267.33 319.803C267.322 319.857 267.322 319.917 267.322 319.97L268.328 341.443L267.12 353.306L265.509 362.667L265.115 374.249L264.503 405.416L261.901 416.248L258.494 425.738L256.263 435.486L255.047 446.924L256.054 457.558L254.668 467.533L249.981 473.529L235.95 484.292C235.902 484.323 235.87 484.36 235.838 484.406L230.602 491.281L225.528 500.763L219.109 510.397L215.895 515.021L209.009 529.415L204.434 535.638L198.377 544.931C198.345 544.984 198.321 545.037 198.297 545.098L195.285 556.748C195.252 556.869 195.277 557.006 195.317 557.12L200.906 569.103L201.671 577.388L192.506 583.376L185.04 588.584L182.188 590.85L178.306 594.837C178.258 594.883 178.226 594.936 178.193 594.996L175.374 601.174L170.357 611.543L164.743 620.904C164.71 620.965 164.678 621.026 164.662 621.086L163.059 630.212L162.858 642.09L163.446 652.725L161.078 663.094L158.211 668.142L150.825 670.045L136.199 672L120.017 671.015L100.389 667.096C100.341 667.081 100.277 667.081 100.22 667.089L90.3537 667.786C90.249 667.794 90.1604 667.824 90.0718 667.869L77.5877 675.169L65.1277 682.324L60.875 685.007L57.1861 688.146L46.5061 696.84L32.8863 708.589L28.7545 710.362L15.0623 716.547L3.33536 723.172L-2.68122 726.242C-2.97117 726.394 -3.08394 726.742 -2.9309 727.023C-2.76177 727.296 -2.3671 727.394 -2.09326 727.25L3.94745 724.165L15.6423 717.556L29.2782 711.408L33.5067 709.589C33.5631 709.566 33.6194 709.529 33.6678 709.491L36.8814 706.686L47.3439 697.696L58.0077 689.002L61.6241 685.902L65.7881 683.287L78.24 676.147L90.5952 668.915L100.228 668.233L119.872 672.152L136.271 673.145L151.091 671.174L158.807 669.196C158.976 669.15 159.113 669.044 159.193 668.908L162.213 663.572C162.238 663.526 162.262 663.473 162.27 663.42L164.686 652.892C164.694 652.846 164.694 652.793 164.694 652.74L164.098 642.067L164.3 630.319L165.878 621.382L171.46 612.066L176.51 601.636L179.297 595.542L183.05 591.676L185.812 589.486L193.23 584.316L202.678 578.154C202.855 578.04 202.96 577.835 202.936 577.631L202.122 568.921C202.122 568.861 202.098 568.793 202.074 568.74L196.525 556.847L199.464 545.469L205.449 536.283L210.064 529.991L216.95 515.582L220.131 511.026L226.583 501.339L231.633 491.887L236.772 485.148L250.802 474.385C250.85 474.362 250.883 474.324 250.915 474.279L255.739 468.101C255.796 468.025 255.844 467.935 255.852 467.836L257.261 457.588L256.255 446.931L257.463 435.675L259.662 426.056L263.068 416.573L265.71 405.56L266.33 374.278L266.725 362.772L268.336 353.441L269.544 341.472L268.553 319.999L270.744 312.086L279.37 292.939L283.405 282.1L286.442 272.807L289.067 262.385L292.474 252.743L297.065 244.405L303.855 235.635L306.867 231.997L309.694 228.328L318.329 218.679L327.543 210.015C327.607 209.955 327.663 209.871 327.704 209.78L330.321 202.064C330.329 202.003 330.345 201.943 330.345 201.882L330.144 189.671L331.554 181.068L334.944 171.335L336.749 166.431L338.923 162.724L346.736 152.833L354.742 144.457L359.985 138.833L365.8 132.807L371.261 126.606L376.472 121.293L385.662 114.478L395.101 108.036L401.537 103.829L408.359 99.7736L417.404 94.5813L426.811 90.5413L438.844 86.198L453.479 82.1429L462.862 80.8922L475.153 78.9215L483.61 77.3751L487.443 77.1099L514.304 85.3568L529.921 87.2063L544.982 90.117L556.339 100.661L565.931 113.364L572.181 121.232L597.415 142.661L606.975 155.615L611.365 164.377L614.554 172.336L618.533 184.941L616.761 195.659L608.159 209.606C608.127 209.652 608.111 209.705 608.095 209.758L604.067 225.198L600.878 231.982L594.282 241.737L587.468 250.696L582.651 256.283L576.844 262.006L571.198 268.206L567.106 274.603L562.25 284.343C562.226 284.397 562.201 284.457 562.193 284.51L560.582 296.024C560.574 296.107 560.582 296.191 560.607 296.282L564.835 308.349L569.507 317.816C569.539 317.884 569.587 317.945 569.652 317.998L581.306 327.951C581.338 327.988 581.387 328.019 581.443 328.041L600.975 337.16L607.845 339.98L614.997 344.429L633.933 355.799L649.526 361.613L664.925 364.584L677.128 364.599L694.066 363.758L706.501 363.902L739.281 366.138L756.421 366.426L769.332 366.001C769.388 366.001 769.444 365.994 769.501 365.979L781.389 362.325L787.526 360.673H789.475L796.797 364.66L815.064 376.431L825.712 384.269L833.403 393.228L837.688 403.567L831.784 413.565L821.402 427.201L817.053 430.377L805.608 437.517L794.509 445.256L790.313 447.909L786.116 450.13L774.583 457.884L765.441 467.086L761.245 470.702L746.393 481.481L736.897 489.364L732.41 494.624L723.704 507.737L720.442 514.112L713.837 523.882L706.033 532.667L701.643 536.692L696.311 539.99L685.631 546.736L676.119 554.49L671.44 558.015L663.369 558.841L645.755 557.999L632.683 557.158L614.142 556.461L603.027 556.878L586.846 559.409L573.991 561.1L557.552 561.509C557.496 561.516 557.44 561.516 557.391 561.532L546.728 564.48C546.647 564.503 546.583 564.533 546.526 564.579L537.674 571.037L528.042 577.048L521.614 580.83L515.364 584.627L503.702 591.358L490.259 597.65L486.45 599.332C486.393 599.355 486.345 599.385 486.305 599.423L483.486 601.811L472.411 610.93L460.773 619.336L456.891 622.883C456.802 622.966 456.746 623.08 456.721 623.194L455.513 629.508L453.097 638.884L449.722 645.077L442.514 654.688L434.314 663.2L429.136 667.066L424.448 671.758L417.392 679.353L411.142 686.524L404.498 694.384L397.031 703.374L394.204 707.042L391.756 710.87L384.926 720.966L377.532 729.335L365.467 742.092L360.618 747.723L355.818 752.756L347.159 761.451L337.905 770.857L335.279 773.677L332.315 776.3L323.416 785.456L316.336 794.347L311.1 800.654L304.73 806.627L298.52 811.94L293.043 817.451L285.005 825.16L275.968 833.005L271.748 836.507L267.326 840.009L257.629 848.741L247.956 858.018C247.722 858.246 247.73 858.61 247.964 858.829C248.213 859.049 248.584 859.057 248.834 858.822L258.499 849.559L268.148 840.865L272.545 837.378L276.782 833.861L285.851 825.993L293.921 818.254L299.366 812.766L305.568 807.468L312.019 801.412L317.311 795.045L324.358 786.191L333.186 777.111L336.166 774.48L338.832 771.63L356.736 753.53L361.561 748.466L366.417 742.827L378.483 730.078L385.933 721.634L392.819 711.469L395.244 707.671L398.03 704.063L405.473 695.096L412.101 687.244L418.335 680.088L425.375 672.524L429.99 667.907L435.169 664.034L443.48 655.408L450.778 645.668L454.249 639.278L456.722 629.743L457.898 623.58L461.587 620.207L473.201 611.824L487.062 600.34L490.807 598.688L504.306 592.366L516.025 585.605L522.284 581.808L528.719 578.018L538.392 571.976L547.187 565.564L557.674 562.668L574.088 562.251L587.031 560.561L603.156 558.029L614.15 557.613L632.618 558.31L645.674 559.151L663.402 559.993L671.754 559.151C671.867 559.144 671.979 559.098 672.068 559.03L676.909 555.377L686.381 547.637L702.417 537.579L706.935 533.44L714.828 524.549L721.513 514.657L724.775 508.283L733.401 495.291L737.775 490.152L747.166 482.36L762.026 471.574L766.303 467.897L775.388 458.741L786.776 451.093L790.948 448.887L795.201 446.189L806.3 438.449L817.753 431.309L822.207 428.057C822.255 428.02 822.296 427.982 822.328 427.944L825.348 424.01L832.798 414.179L838.863 403.878C838.952 403.726 838.968 403.552 838.911 403.385L834.482 392.713C834.458 392.66 834.425 392.606 834.377 392.561L826.532 383.442L815.764 375.491L797.432 363.674L789.934 359.581C789.845 359.536 789.74 359.505 789.628 359.505L787.421 359.513C787.364 359.513 787.308 359.52 787.252 359.536L781.018 361.218L769.186 364.849L756.396 365.266L739.321 364.978L706.541 362.742L694.025 362.598L677.079 363.439L665.038 363.432L649.863 360.506L634.472 354.776L615.649 343.459L608.424 338.972L601.49 336.114L582.063 327.041L570.553 317.202L565.962 307.909L561.798 296.031L563.385 284.737L568.177 275.134L572.18 268.865L577.738 262.771L583.553 257.033L588.425 251.386L595.28 242.374L601.941 232.52L605.211 225.569L609.246 210.114L617.864 196.152C617.896 196.091 617.928 196.023 617.944 195.947L619.748 184.994C619.756 184.911 619.748 184.828 619.724 184.737L615.697 171.965L612.475 163.922L608.021 155.031L598.316 141.895L573.058 120.451L566.904 112.682L557.255 99.9177L545.706 89.1769C545.625 89.1011 545.512 89.0481 545.4 89.0253L530.112 86.0768L514.56 84.2425L487.699 75.988C487.643 75.9653 487.587 75.9501 487.514 75.9501L487.516 75.9516Z" fill="#DCDDDF"/>
<path d="M459.392 92.0954L446.771 94.0661L435.157 98.5988L429.285 101.274L423.486 103.51L410.527 110.416L398.212 118.299L394.95 120.709L392.066 123.726L383.98 133.443L376.546 142.145L371.125 148.164L359.648 160.223L355.766 166.348L351.9 176.558L348.469 186.252L345.843 195.409L344.828 206.65L341.494 213.911L335.123 220.15L329.114 225.319L324.604 231.307L319.328 241.07L312.515 250.264L308.479 256.321L304.815 264.552L302.39 270.897L296.946 287.489L293.338 296.153L288.722 305.81L284.075 315.929C284.051 315.974 284.043 316.027 284.027 316.08L282.819 325.062L283.221 337.084L282.609 346.998L281.602 358.634L281.401 368.078L281.602 380.168L281.208 402.043L280.596 411.851L277.205 422.812L275.393 428.125L273.975 435.356L272.364 444.066L272.356 449.083L274.185 457.209L276.19 467.154L275.989 470.86L272.332 474.211L253.84 489.636L248.322 496.17C248.29 496.215 248.258 496.268 248.234 496.321L244.408 506.008L242.628 510.966L239.301 514.384L230.45 523.222C230.393 523.268 230.345 523.336 230.329 523.397L225.706 534.069L224.047 544.446L220.841 555.892C220.793 556.051 220.817 556.217 220.922 556.362L228.782 567.595L235.355 577.57L226.511 585.468L214.736 590.478L206.649 594.428L199.715 599.536L192.377 607.761L185.676 618.365C185.644 618.41 185.62 618.471 185.612 618.532L183.799 625.967L183.791 639.149L185.821 648.116L191.878 662.662L193.851 674.486L190.863 684.749L188.012 689.479L180.989 691.655L166.805 693.595L151.244 692.473L133.138 690.927L119.615 690.503L102.484 690.495L91.498 692.473C91.4416 692.481 91.3933 692.496 91.353 692.519L78.8849 698.135L65.4344 703.032L59.7401 705.867L55.1976 709.445L44.7593 717.153L34.0954 724.445L28.7071 727.507L23.0771 730.592L12.1635 737.786L0.186841 750.505L-2.77712 752.824C-3.03486 753.029 -3.06707 753.393 -2.85766 753.635C-2.63213 753.862 -2.2375 753.908 -1.98781 753.703L1.03246 751.323L4.31044 747.905L12.9687 738.635L23.7293 731.563L29.3189 728.5L34.7635 725.408L45.4756 718.078L55.9541 710.339L60.4082 706.822L65.9335 704.085L79.3598 699.197L91.7955 693.603L102.588 691.647L119.583 691.655L133.049 692.071L151.139 693.618L166.845 694.74L181.27 692.769L188.624 690.502C188.769 690.457 188.897 690.366 188.962 690.237L191.982 685.181L195.059 674.668C195.083 674.592 195.091 674.501 195.083 674.425L193.061 662.358L186.997 647.775L184.999 639.02L185.007 626.088L186.787 618.865L193.384 608.412L200.568 600.347L207.309 595.375L215.267 591.502L227.107 586.468C227.171 586.446 227.228 586.408 227.276 586.362L236.546 578.078C236.764 577.888 236.804 577.592 236.651 577.358L229.805 566.965L222.089 555.937L225.238 544.681L226.873 534.372L231.408 523.934L243.618 511.648C243.674 511.587 243.723 511.519 243.739 511.443L245.551 506.395L249.336 496.806L254.717 490.416L273.153 475.052L276.995 471.527C277.107 471.421 277.172 471.285 277.172 471.141L277.373 467.07L275.352 456.974L273.539 448.954L273.547 444.164L276.56 428.405L278.364 423.145L281.779 412.04L282.407 402.088L282.802 380.167L282.6 368.077L282.802 358.693L283.808 347.08L284.421 337.098L284.018 325.114L285.21 316.299L289.809 306.263L294.432 296.591L298.073 287.859L303.517 271.251L305.917 264.96L309.526 256.842L313.505 250.892L320.335 241.652L325.602 231.897L329.992 226.075L335.944 220.974L342.451 214.63C342.508 214.584 342.54 214.524 342.572 214.463L345.987 207.027C346.011 206.967 346.035 206.914 346.035 206.845L347.042 195.612L349.636 186.584L353.051 176.935L356.876 166.839L360.654 160.904L372.05 148.92L377.495 142.871L384.945 134.154L393.008 124.467L395.795 121.549L398.952 119.23L411.186 111.392L424.033 104.54L429.792 102.319L435.663 99.6433L447.108 95.156L459.447 93.2308L476.216 94.3526L487.951 95.4668L500.927 101.735L516.399 110.558C516.48 110.604 516.568 110.634 516.657 110.634L532.153 111.9L545.435 113.56L557.363 123.277L573.665 136.754L582.234 144.122L586.825 151.899L593.446 165.755L600.042 179.997L601.42 188.616L597.247 199.144L591.408 219.269L586.398 228.713L582.202 234.83L572.569 247.723L567.97 252.885L560.52 261.739L554.036 271.615L550.766 279.574L546.321 294.794C546.296 294.84 546.296 294.893 546.296 294.946V295.787C546.296 295.833 546.296 295.886 546.321 295.939L547.73 300.987L553.175 315.632L559.03 328.442L561.615 337.901C561.672 338.068 561.793 338.212 561.954 338.28L575.646 344.178L590.804 348.832L606.276 354.441L637.961 374.596C638.042 374.641 638.122 374.672 638.219 374.695L656.534 377.082L669.904 376.953L684.901 374.414L699.141 373.156L714.187 373.027L730.432 374.285L748.506 376.809L763.422 378.5L782.543 382.115L790.959 387.959L796.654 400.974L794.737 408.327L788.648 413.117L781.182 419.446L773.562 425.328L766.088 431.809L759.572 439.745L755.932 444.679L752.525 449.015L744.881 458.126L738.615 467.586L733.46 472.687L719.599 484.019L711.939 490.621C711.907 490.659 711.859 490.697 711.835 490.742L706.599 498.746C706.567 498.792 706.543 498.83 706.535 498.875L702.902 509.965L700.76 514.854L696.427 518.697L686.818 525.678L678.127 533.007L672.312 537.336L666.191 541.194L654.005 544.817L638.863 545.643L624.373 546.196L608.506 546.052L593.195 546.189L578.625 547.879L565.4 548.44L549.92 548.713C549.863 548.721 549.807 548.721 549.758 548.736L540.504 551.26C540.424 551.283 540.343 551.321 540.287 551.366L533.851 556.278L525.982 562.599L517.38 568.322L510.51 573.249L494.844 583.194L486.226 587.658L477.536 593.01L469.635 599.081L462.982 604.417L455.773 609.451L448.694 615.082C448.637 615.128 448.589 615.173 448.557 615.234L444.127 622.253L439.705 632.364L432.497 641.286L428.695 645.47L424.853 650.124L418.989 658.447L413.376 665.147L405.74 673.697L395.076 686.06L393.014 689.206L385.79 699.438L379.362 707.981L373.523 715.417L366.315 722.807L361.909 727.15L358.043 731.531L349.989 740.794L341.757 749.769L337.746 753.968L325.85 765.929L318.811 773.084L312.158 780.255L305.481 788.858L301.881 792.754L298.272 796.529L288.438 805.344L279.144 814.637L275.93 818.01L272.169 821.05L261.706 829.176L251.453 837.036L246.999 840.848L242.738 844.942L235.272 852.825L230.625 858.032C230.407 858.275 230.448 858.638 230.705 858.843C230.955 859.055 231.35 859.025 231.575 858.775L236.206 853.583L243.641 845.737L247.845 841.682L252.242 837.915L262.479 830.07L272.958 821.929L276.792 818.829L280.062 815.41L289.316 806.148L299.15 797.332L302.807 793.512L306.447 789.571L313.124 780.967L319.729 773.85L338.624 754.779L342.659 750.557L350.915 741.567L362.811 727.939L367.2 723.618L374.465 716.167L380.353 708.678L386.788 700.113L394.037 689.85L396.067 686.749L406.69 674.463L414.334 665.905L419.98 659.151L425.843 650.828L429.645 646.235L433.447 642.051L440.72 633.038C440.752 632.993 440.776 632.955 440.8 632.91L445.222 622.806L449.563 615.946L456.53 610.397L463.739 605.364L470.416 600.013L478.26 593.979L486.862 588.681L495.481 584.209L511.219 574.218L518.097 569.284L526.723 563.546L534.624 557.202L540.963 552.366L550.016 549.895L565.432 549.622L578.729 549.053L593.283 547.363L608.506 547.234L624.38 547.371L638.918 546.81L654.222 545.968L666.649 542.3C666.706 542.277 666.762 542.254 666.81 542.224L673.044 538.29L678.932 533.917L687.614 526.595L697.231 519.598L701.709 515.634C701.774 515.573 701.822 515.513 701.854 515.429L704.061 510.373L707.694 499.307L712.832 491.439L720.419 484.897L734.297 473.535L739.564 468.305L745.879 458.8L753.498 449.734L756.929 445.376L760.562 440.449L766.989 432.604L774.367 426.222L781.978 420.347L789.452 414.01L795.678 409.106C795.783 409.031 795.847 408.924 795.88 408.803L797.901 401.087C797.925 400.973 797.925 400.844 797.869 400.731L792.03 387.398C791.981 387.299 791.917 387.216 791.828 387.155L783.17 381.114C783.106 381.061 783.025 381.03 782.937 381.015L763.622 377.369L748.674 375.671L730.576 373.147L714.226 371.881L699.084 372.01L684.739 373.276L669.79 375.815L656.606 375.944L638.532 373.579L606.847 353.447L591.23 347.77L576.112 343.123L562.75 337.363L560.213 328.085L554.341 315.229L548.921 300.669L547.544 295.734V295.044L551.949 279.96L555.155 272.153L561.55 262.421L568.96 253.636L573.583 248.459L583.256 235.505L587.509 229.312L592.583 219.708L598.447 199.531L602.667 188.912C602.699 188.821 602.715 188.722 602.699 188.624L601.29 179.778C601.282 179.725 601.266 179.68 601.241 179.634L594.564 165.293L587.912 151.384L583.256 143.486C583.232 143.433 583.192 143.387 583.143 143.342L574.493 135.906L558.175 122.421L546.086 112.598C545.997 112.522 545.892 112.477 545.772 112.461L532.289 110.771L516.905 109.52L501.522 100.743L488.409 94.4064C488.345 94.376 488.264 94.3533 488.184 94.3457L476.32 93.2163L459.392 92.0954Z" fill="#DCDDDF"/>
<path d="M456.526 106.843C456.462 106.843 456.405 106.85 456.349 106.873L442.673 110.936L428.409 114.302L420.282 117.265C420.226 117.288 420.161 117.326 420.105 117.364L414.274 122.139L406.743 131.061L398.31 140.444L395.693 143.241L393.091 145.902L384.232 155.316L376.959 164.185C376.926 164.223 376.902 164.268 376.878 164.314L373.052 173.015L369.412 183.87L367.213 189.168L364.402 195.179L360.971 203.342L358.547 210.111L352.151 220.253L344.371 228.872L339.869 236.406L334.182 251.225L325.387 264.451L321.11 274.085L318.461 284.424L314.063 293.732L309.504 299.804L304.833 307.141L301.402 313.493L299.541 319.921L298.309 331.806L297.713 341.243L296.505 352.734L295.909 362.588V374.549L296.102 384.524L296.505 396.462L297.117 406.869L299.316 419.899L298.333 427.881L293.734 438.06L290.891 447.816L289.457 458.147L289.852 468.941L285.905 479.264L277.722 488.451L274.935 491.233L271.754 493.871L262.669 502.459C262.612 502.505 262.58 502.558 262.548 502.611L257.522 512.298L253.527 521.083L245.747 528.867L241.945 532.362C241.84 532.46 241.776 532.581 241.768 532.725L241.365 536.796C241.357 536.857 241.365 536.925 241.373 536.985L243.991 546.953L249.484 557.186C249.508 557.231 249.532 557.269 249.572 557.307L259.842 568.116L266.39 578.379L259.06 588.074L246.689 594.607L240.705 597.26L234.084 599.921L222.776 605.121L214.214 611.511L208.721 616.9C208.665 616.953 208.617 617.014 208.601 617.082L205.782 623.54C205.757 623.585 205.749 623.638 205.733 623.691L204.324 634.781V634.94L205.935 644.763C205.959 644.847 205.991 644.93 206.039 645.006L214.279 656.239L223.517 665.479L226.9 674.909L228.47 685.93L226.078 696.36L223.058 707.282L222.236 717.356L219.047 727.763L216.671 731.545L210.59 731.417L195.343 729.878L184.792 728.021L174.789 723.556L153.848 714.847C153.792 714.824 153.744 714.809 153.687 714.801L132.763 711.997L120.166 712.414L104.597 714.665L92.6449 717.909L80.5715 721.282L65.5987 722.669C65.5423 722.677 65.4859 722.685 65.4296 722.707L56.9725 725.792C56.9242 725.807 56.8839 725.838 56.8356 725.868L50.4003 730.355L41.5486 736.101L32.5117 741.566L25.0615 746.197L19.3187 751.897L12.4325 760.372L4.7647 776.244L0.206074 780.526L-2.782 782.876C-3.03974 783.081 -3.07195 783.445 -2.86255 783.687C-2.63702 783.922 -2.24238 783.952 -1.99269 783.755L1.02758 781.368L5.69898 776.986C5.75536 776.941 5.80368 776.88 5.81979 776.82L8.43736 771.491L13.4712 760.963L20.245 752.647L25.8345 747.084L33.172 742.536L42.2169 737.063L51.1007 731.295L57.4798 726.845L65.7917 723.813L80.7886 722.411L92.9747 719.023L104.847 715.794L120.271 713.558L132.682 713.141L153.423 715.93L174.275 724.602L184.334 729.089C184.383 729.112 184.439 729.127 184.479 729.134L195.143 730.961L210.486 732.508L216.978 732.652H216.986C217.204 732.652 217.405 732.538 217.518 732.364L220.135 728.157L223.405 717.499L224.243 707.411L227.255 696.564L229.671 686.013C229.68 685.952 229.696 685.884 229.68 685.808L228.069 674.582L224.621 664.933C224.597 664.857 224.557 664.781 224.501 664.728L215.23 655.466L207.119 644.407L205.541 634.788L206.926 623.858L209.665 617.566L215.021 612.314L223.413 606.045L234.577 600.929L241.181 598.268L247.238 595.592L259.762 588.983C259.843 588.937 259.907 588.884 259.955 588.816L267.599 578.705C267.744 578.523 267.76 578.273 267.623 578.076L260.793 567.403L250.508 556.564L245.103 546.528L242.566 536.781L242.937 533.021L246.601 529.655L254.47 521.772C254.518 521.727 254.551 521.666 254.583 521.606L258.61 512.76L263.58 503.186L272.568 494.689L275.758 492.044L278.609 489.202L286.897 479.909C286.945 479.856 286.977 479.795 287.001 479.734L291.028 469.206C291.053 469.138 291.061 469.062 291.061 468.986L290.658 458.177L292.067 448.02L294.862 438.416L299.477 428.237C299.502 428.191 299.51 428.138 299.526 428.085L300.532 419.944V419.785L298.326 406.733L297.713 396.401L297.311 384.486L297.117 374.526V362.603L297.713 352.809L298.922 341.326L299.534 331.904L300.742 320.133L302.538 313.909L305.913 307.709L310.536 300.448L315.127 294.308L319.629 284.803L322.279 274.456L326.476 265.004L335.279 251.747L336.946 247.571L340.973 236.898L345.363 229.546L353.143 220.935L359.651 210.611L362.107 203.767L365.522 195.656L368.341 189.638L370.564 184.279L374.196 173.432L377.966 164.844L385.174 156.059L399.237 141.21L407.694 131.796L415.168 122.935L420.831 118.304L428.788 115.393L443.004 112.043L456.583 108.003L470.533 110.224L484.91 115.249L497.878 123.056L516.604 133.729L535.547 143.294L550.004 152.254L567.708 163.336L577.808 171.908L583.929 184.317L583.736 194.011L581.73 205.586L580.151 211.771L576.575 217.6L571.936 224.892L568.11 231.221L561.288 240.726L553.274 249.806L549.449 254.309L540.943 267.71L537.48 275.078L534.629 285.417L534.411 296.635L536.223 308.8V318.321L532.615 329.327L530.191 340.901C530.142 341.106 530.223 341.325 530.408 341.454L547.121 354.37C547.201 354.423 547.298 354.469 547.395 354.484L568.319 357.993L577.71 359.108L587.689 363.838L604.104 374.601L617.361 384.129L635.58 392.611C635.66 392.656 635.757 392.672 635.853 392.672H635.862L651.559 392.528L666.919 390.981L680.82 389.154L694.231 384.493L698.379 382.84L704.323 382.568L721.808 382.143L729.484 382.151L735.71 385.41L746.446 395.393L751.061 404.519L742.661 414.342L731.86 423.249L728.824 425.932C728.743 425.993 728.687 426.083 728.654 426.174L727.245 430.245L723.435 440.91L720.23 449.028L715.808 458.836L712.602 468.326L706.433 475.254L698.483 480.924L691.065 485.532C691.017 485.563 690.96 485.608 690.928 485.646L685.709 491.672L680.409 501.322L672.629 510.349L669.254 513.533L665.477 516.292L653.637 523.712L640.605 530.276L634.235 532.641L625.101 534.157L613.044 535.56L602.444 535.689L584.355 535.135L571.871 534.991L554.151 534.984L543.777 536.538C543.721 536.545 543.657 536.56 543.6 536.598L529.924 543.337L518.761 551.531L511.48 557.739L500.631 566.001L488.799 573.55L484.377 576.211L480.125 579.174L468.849 586.754L457.967 594.622L453.562 597.555L449.494 600.815L439.628 609.259L431.88 619.31L429.012 624.585L424.864 629.247L418.808 636.706L413.758 643.747L407.113 652.873L399.091 662.242L396.28 665.312L393.437 668.7L386.567 678.137L381.122 686.589L374.896 695.404L367.067 704.773L364.466 707.699L361.864 710.503L352.61 719.758L344.161 728.604L339.506 733.811L334.101 739.125L327.078 745.128L322.165 751.821L314.771 760.06L306.137 768.307L301.619 771.18L297.157 774.432L288.047 782.755C288.015 782.793 287.983 782.83 287.942 782.876L281.692 792.987L277.947 798.081L272.567 802.242L263.74 808.541C263.691 808.572 263.659 808.609 263.627 808.655L257.586 816.098L251.207 822.071L243.998 827.506L236.774 832.842L223.605 846.956L215.551 855.802L213.715 858.076C213.513 858.333 213.554 858.69 213.827 858.879C214.085 859.069 214.456 859.031 214.681 858.773L216.493 856.529L224.523 847.714L237.604 833.684L244.756 828.423L252.021 822.951L258.504 816.879L264.561 809.443L273.348 803.175L278.809 798.953C278.841 798.915 278.889 798.877 278.922 798.839L282.748 793.647L288.973 783.566L297.97 775.349L302.344 772.158L306.935 769.232L315.698 760.871L323.164 752.556L328.013 745.886L334.971 739.951L340.432 734.584L345.104 729.362L353.528 720.539L362.799 711.276L365.424 708.457L368.05 705.501L375.911 696.079L382.169 687.203L387.614 678.759L394.444 669.382L397.239 666.047L400.034 662.977L408.096 653.556L419.799 637.38L425.823 629.96L430.028 625.207L432.911 619.909L440.522 610.024L450.284 601.687L454.303 598.465L458.693 595.547L469.582 587.671L480.85 580.099L485.07 577.151L489.468 574.505L501.356 566.918L512.269 558.602L519.542 552.41L530.585 544.299L544.084 537.659L554.264 536.128L571.879 536.136L584.339 536.272L602.445 536.825L613.149 536.697L625.295 535.287L634.573 533.74L641.137 531.322L654.282 524.698L666.202 517.224L670.068 514.396L673.54 511.114L681.433 501.943L686.732 492.301L691.839 486.434L699.216 481.848L707.303 476.065L713.642 468.962C713.69 468.902 713.73 468.834 713.754 468.765L716.976 459.222L721.382 449.444L724.603 441.281L729.79 426.659L732.698 424.089L743.555 415.123L752.27 404.943C752.415 404.776 752.447 404.533 752.35 404.336L747.526 394.793C747.494 394.733 747.462 394.68 747.405 394.634L736.532 384.523C736.5 384.485 736.451 384.454 736.395 384.424L729.96 381.051C729.871 381.005 729.766 380.975 729.67 380.975H721.825L704.299 381.4L698.226 381.695C698.162 381.695 698.089 381.71 698.025 381.741L693.796 383.423L680.539 388.047L666.782 389.844L651.503 391.382L636.007 391.519L618.022 383.158L604.837 373.668L588.318 362.844L578.169 358.031C578.113 358.001 578.048 357.985 577.976 357.97L568.512 356.848L547.765 353.377L531.472 340.771L533.808 329.599L537.424 318.57C537.432 318.517 537.448 318.456 537.448 318.403V308.716L535.636 296.558L535.837 285.56L538.648 275.448L542.031 268.24L550.456 254.968L554.225 250.541L562.279 241.422L569.157 231.834L572.999 225.475L577.63 218.19L581.247 212.278C581.279 212.232 581.303 212.179 581.311 212.126L582.922 205.812L584.944 194.117L585.145 184.21C585.145 184.126 585.137 184.035 585.089 183.952L578.855 171.316C578.823 171.248 578.774 171.187 578.71 171.134L568.441 162.433L550.673 151.298L536.175 142.308L517.208 132.727L498.514 122.077L485.442 114.225L470.839 109.116L456.632 106.842C456.592 106.849 456.559 106.842 456.527 106.842L456.526 106.843Z" fill="#DCDDDF"/>
<path d="M454.32 125.782C454.272 125.782 454.231 125.789 454.183 125.797L438.88 129.026L427.298 133.976C427.233 134.006 427.161 134.044 427.121 134.089L421.684 139.138L417.013 144.224L408.169 153.054L398.133 162.158L395.339 164.53C395.25 164.606 395.177 164.705 395.161 164.811L394.147 168.457L390.53 179.955L387.325 188.202L381.92 197.813L377.273 207.531L372.851 215.353L362.848 227.769L359.795 232.302L353.94 242.155L350.275 252.07L347.037 261.916L342.044 271.808L339.394 280.032L337.565 292.046L336.212 296.602L332.894 299.869L324.437 308.009L318.34 316.658L314.667 325.625C314.659 325.671 314.635 325.724 314.635 325.777L313.427 337.427V347.592L312.613 358.923V368.641L313.016 380.458V390.402L314.224 402.955L317.663 414.431L320.056 425.505L317.857 436.193L313.266 445.895L309.633 454.339L304.986 469.84L303.383 473.721L299.187 484.461L293.799 491.556L285.221 499.484L272.93 511.279C272.866 511.354 272.809 511.438 272.769 511.536L271.561 515.887L267.751 527.371L265.923 537.263C265.891 537.391 265.923 537.535 265.987 537.649L273.832 550.421C273.88 550.505 273.953 550.573 274.033 550.626L286.107 557.789L301.716 566.157L309.15 576.102L308.216 580.854L302.948 585.076L292.752 591.209L282.66 598.106L277.706 601.282L271.553 603.223L257.651 607.861L245.159 612.5L237.258 616.313C237.169 616.358 237.089 616.427 237.024 616.518L232.595 622.976C232.538 623.074 232.506 623.18 232.506 623.286V634.232L234.528 643.335C234.56 643.471 234.64 643.593 234.761 643.684L245.634 651.263C245.667 651.294 245.715 651.317 245.771 651.339L273.559 661.875L278.36 665.112L277.82 669.008L273.849 675.648L269.258 681.636L266.375 687.92L260.366 697.539C260.334 697.599 260.31 697.652 260.302 697.72L257.886 709.371C257.861 709.484 257.878 709.613 257.918 709.719L263.951 722.355L266.906 731.989L264.925 743.51L265.126 752.871C265.126 753.023 265.191 753.175 265.32 753.281L272.963 760.019C273.124 760.156 273.35 760.224 273.551 760.148L283.812 757.344L300.267 754.554L306.123 753.425C306.316 753.395 306.469 753.273 306.549 753.114L308.555 749.18L313.959 738.303L321.152 730.496L327.724 725.228L335.287 720.93L342.625 714.684L348.126 708.007L354.585 699.57L363.743 692.377L367.794 688.852C367.842 688.807 367.875 688.769 367.907 688.723L370.524 684.509L376.372 674.23L382.38 665.43L387.801 657.714L394.816 649.762L398.626 645.707L408.726 631.609L415.556 622.634L420.01 615.865L425.817 608.9L430.246 603.275L434.837 598.689L443.85 591.004L454.627 584.894L460.684 581.377L465.983 577.261L475.036 569.947L485.418 563.974L491.87 560.177L497.194 555.621L505.675 547.313L515.122 538.475L518.336 535.686L522.452 533.518L534.605 527.947L548.201 525.718L578.115 524.877L593.402 524.324L606.957 522.353L618.314 519.397L628.696 514.152L634.608 510.18L639.521 505.041L646.761 498.044L654.373 491.753L661.766 486.879L668.645 481.664L676.312 475.184L684.141 469.309C684.222 469.249 684.278 469.181 684.31 469.097L688.337 460.676C688.37 460.615 688.386 460.562 688.394 460.509L689.803 449.276L691.607 439.763L692.824 427.363C692.832 427.309 692.824 427.249 692.815 427.196L691.092 418.865L697.02 414.734C697.084 414.689 697.141 414.636 697.181 414.568L702.142 406.821L705.839 404.653C706.032 404.539 706.145 404.32 706.121 404.1C706.097 403.88 705.944 403.69 705.718 403.615L698.872 401.371C698.792 401.348 698.711 401.348 698.623 401.348L691.374 401.902L673.509 401.894L665.624 402.326C665.536 402.326 665.455 402.349 665.391 402.387L659.753 405.047L649.765 410.338L636.226 411.589L619.594 410.892L607.73 409.641L598.911 403.077L592.717 392.791L586.483 382.952C586.435 382.892 586.379 382.831 586.314 382.785L578.059 377.025C577.978 376.964 577.865 376.926 577.769 376.911L566.501 375.789L549.523 375.637H534.832L518.828 374.402L508.228 362.63L506.038 351.549L505.45 340.217L508.39 331.47L515.92 324.549L520.543 320.486C520.632 320.411 520.688 320.305 520.721 320.191L522.146 314.445L522.96 302.424L522.565 292.684V280.207L524.562 271.915L529.363 261.637L534.767 252.844L540.349 246.03L546.953 239.193L551.6 234.122L554.895 228.551L559.55 218.106L562.997 207.805C563.021 207.729 563.03 207.653 563.021 207.57L561.805 196.344L559.582 186.315C559.558 186.202 559.494 186.096 559.405 186.012L547.936 175.764L533.213 164.364L517.096 152.714L500.738 143.277L485.201 135.682L468.062 128.511L454.45 125.805C454.402 125.783 454.37 125.783 454.321 125.783L454.32 125.782ZM427.903 134.984L439.268 130.11L454.321 126.942L467.683 129.587L484.661 136.704L500.134 144.277L516.403 153.661L532.447 165.273L547.13 176.635L558.414 186.724L560.589 196.517L561.781 207.569L558.39 217.703L553.791 228.042L550.601 233.462L546.035 238.426L539.406 245.294L533.744 252.207L528.267 261.113L523.394 271.558L521.357 280.085L521.349 292.706L521.743 302.408L520.946 314.286L519.593 319.781L515.091 323.73L507.431 330.757C507.367 330.825 507.31 330.908 507.27 330.999L504.25 339.981C504.226 340.05 504.218 340.11 504.226 340.186L504.838 351.692L507.061 363.001C507.069 363.1 507.117 363.191 507.198 363.267L518.071 375.334C518.175 375.448 518.32 375.523 518.489 375.539L534.791 376.804L549.53 376.812L566.444 376.956L577.487 378.055L585.501 383.649L591.67 393.382L597.92 403.751C597.952 403.819 598.009 403.872 598.065 403.918L607.118 410.649C607.207 410.717 607.319 410.762 607.432 410.77L619.506 412.036L636.258 412.733L650.015 411.467C650.104 411.46 650.184 411.437 650.265 411.399L660.333 406.063L665.826 403.463L673.55 403.046L691.422 403.054L698.59 402.5L704.108 404.312L701.369 405.919C701.289 405.964 701.224 406.033 701.176 406.108L696.206 413.878L690.061 418.16C689.868 418.289 689.779 418.517 689.827 418.736L691.624 427.355L690.431 439.619L688.627 449.116L687.218 460.297L683.296 468.513L675.563 474.32L667.896 480.8L661.074 485.977L653.656 490.866L645.956 497.226L638.675 504.275L633.834 509.346L628.083 513.197L617.887 518.351L606.731 521.246L593.321 523.202L578.099 523.755L548.104 524.597L534.34 526.848C534.283 526.855 534.227 526.871 534.17 526.893L521.904 532.51L517.643 534.769L514.309 537.657L504.837 546.518L496.372 554.81L491.161 559.275L484.814 563.004L474.36 569.03L465.226 576.39L459.991 580.453L454.015 583.925L443.158 590.095L434.016 597.887L429.312 602.541L424.85 608.203L419.019 615.214L414.557 622.006L407.735 630.958L397.659 645.003L393.882 649.013L386.826 657.033L381.357 664.802L375.317 673.655L369.453 683.941L366.892 688.057L362.937 691.506L353.699 698.79L347.151 707.317L341.738 713.904L334.57 720.006L327.015 724.288L320.298 729.678L312.976 737.606C312.944 737.644 312.912 737.689 312.888 737.735L305.582 752.349L300.033 753.418L283.538 756.222L273.559 758.951L266.35 752.599L266.149 743.579L268.154 732.027C268.163 731.951 268.154 731.861 268.13 731.777L265.11 721.954L259.134 709.409L261.478 698.032L267.478 688.436L270.329 682.197L274.888 676.262L278.947 669.471C278.996 669.41 279.012 669.342 279.028 669.266L279.64 664.915C279.664 664.703 279.576 664.498 279.382 664.377L274.147 660.868L246.32 650.294L235.696 642.896L233.731 634.126L233.739 623.469L237.992 617.283L245.692 613.569L258.103 608.961L271.973 604.337L278.199 602.374C278.255 602.359 278.303 602.328 278.36 602.306L283.402 599.076L293.469 592.186L303.698 586.024L309.199 581.628C309.312 581.537 309.376 581.423 309.401 581.294L310.415 576.102C310.448 575.95 310.415 575.791 310.311 575.67L302.651 565.422C302.603 565.354 302.539 565.293 302.458 565.255L286.76 556.834L274.832 549.732L267.172 537.27L268.944 527.651L272.754 516.206L273.93 511.976L286.1 500.296L294.734 492.299L300.235 485.068C300.267 485.022 300.291 484.984 300.316 484.931L306.155 470.204L310.786 454.718L314.394 446.35L319.018 436.541L321.273 425.611C321.297 425.535 321.297 425.46 321.273 425.384L318.848 414.158L315.417 402.743L314.233 390.357V380.443L313.831 368.626V358.961L314.644 347.63V337.488L315.836 325.966L319.436 317.204L325.404 308.752L337.22 297.314C337.285 297.246 337.341 297.163 337.365 297.072L338.775 292.304L340.603 280.298L343.196 272.24L348.19 262.356L351.452 252.449L355.06 242.641L360.859 232.901L363.871 228.436L373.899 215.982L378.385 208.046L383.033 198.329L388.453 188.68L391.699 180.319L395.331 168.775L396.298 165.281L398.98 163.007L409.064 153.865L417.94 144.997L422.587 139.926L427.903 134.984Z" fill="#DCDDDF"/>
<path d="M455.722 150.639C455.673 150.639 455.617 150.646 455.577 150.661L441.289 154.035L428.345 158.401L422.571 161.963C422.514 162.001 422.466 162.039 422.434 162.084L418.608 166.579L412.519 176.19L408.258 185.946L403.458 194.89L397.023 204.963L395.21 208.071L393.583 211.475L388.147 222.412L382.348 230.333L375.333 238.868L368.261 249.01L365.998 253.293L364.54 259.031L362.534 269.165L356.904 287.213L354.109 295.975L347.714 305.457L339.507 314.803L336.656 318.775L333.813 323.444L329.165 332.472C329.133 332.532 329.109 332.601 329.109 332.676L328.295 341.795L330.317 354.984L331.324 364.36L332.935 377.564L333.337 386.372L332.935 398.962L333.136 404.754C333.136 404.829 333.16 404.905 333.192 404.973L336.213 411.287L341.786 423.809L342.181 433.853L338.597 444.707L336.599 449.437L333.998 454.447L329.769 463.308L327.321 471.388L325.114 482.72L320.386 490.671L313.048 496.076L304.68 500.237L296.731 506.187C296.666 506.248 296.594 506.316 296.561 506.392L292.534 514.533C292.486 514.631 292.47 514.73 292.478 514.836L293.686 526.486L294.894 534.65C294.918 534.816 295.015 534.961 295.168 535.051L305.236 541.365C305.284 541.396 305.341 541.426 305.405 541.441L320.096 545.512L333.434 548.71L340.369 555.441L340.191 563.241L335.995 573.959L334.424 577.514L332.065 580.258L323.213 589.786L315.352 598.775L310.89 604.847L304.624 610.024L293.831 614.898L278.471 617.808L271.601 619.355C271.432 619.4 271.287 619.506 271.207 619.65L269.394 622.88C269.306 623.046 269.306 623.243 269.394 623.418L274.235 632.263L284.561 644.293L301.974 657.019L312.847 665.835L314.192 674.93L307.096 683.867L304.527 686.338C304.479 686.384 304.438 686.437 304.414 686.497L297.375 700.535L295.514 709.085C295.466 709.305 295.562 709.525 295.74 709.661L303.182 714.998C303.343 715.111 303.488 715.164 303.738 715.096L311.188 712.997C311.333 712.951 311.462 712.86 311.534 712.731L316.157 705.152C316.222 705.045 316.246 704.917 316.238 704.795L314.917 694.259L330.083 695.328C330.164 695.351 330.276 695.32 330.365 695.283L339.813 691.629C339.917 691.584 340.014 691.515 340.086 691.424L344.718 685.11L351.089 675.795L366.682 666.464C366.762 666.418 366.827 666.35 366.875 666.282L369.291 662.628L375.936 652.381L382.363 643.709L387.8 636.129L394.799 628.603L398.633 624.093L401.508 619.385L407.347 609.122L413.944 600.625L419.364 594.182L425.961 587.914L432.187 582.456L439.935 578.189L448.593 573.269L456.663 568.198L464.557 562.278L473.553 556.98L480.633 552.182L487.116 546.815L493.793 540.471L499.834 534.43L507.47 527.434L516.2 520.794L526.18 517.322L542.731 515.526L553.781 514.828L568.883 513.706L576.148 513.009L581.673 511.584L596.219 506.801L607.552 501.579L614.687 496.758C614.736 496.728 614.776 496.69 614.808 496.644L619.834 490.611L626.632 482.242L636.434 475.269L641.444 472.055C641.508 472.01 641.581 471.941 641.621 471.866L644.641 466.954C644.673 466.893 644.706 466.825 644.722 466.757L646.929 453.697L649.514 447.906C649.603 447.693 649.562 447.458 649.393 447.284L638.52 436.475C638.399 436.354 638.174 436.293 638.013 436.301L625.037 437.551L605.804 433.921L584.636 427.091L575.044 420.406L562.471 406.595C562.439 406.55 562.382 406.52 562.334 406.482L549.053 398.765C548.948 398.705 548.835 398.674 548.722 398.674H536.649L516.32 396.863L494.831 384.235L487.309 372.645L485.311 362.784L485.319 355.871L486.93 344.577L487.542 339.657L488.533 335.504L492.544 324.051L496.941 315.705L499.793 305.495L502.015 295.634L504.633 285.969L505.841 275.153L509.643 265.678L517.456 252.277L519.63 249.541L527.668 239.581L535.102 230.886L539.613 222.215L544.244 211.368C544.292 211.27 544.3 211.164 544.292 211.058L542.891 202.773C542.867 202.697 542.843 202.629 542.802 202.561L533.137 187.681C533.113 187.636 533.081 187.605 533.033 187.568L517.729 173.81L502.346 164.479L486.39 156.861L469.597 151.775L455.776 150.623C455.752 150.646 455.744 150.638 455.72 150.638L455.722 150.639ZM423.327 162.873L428.885 159.416L441.635 155.126L455.762 151.799L469.349 152.913L485.917 157.938L501.736 165.488L516.982 174.72L532.124 188.356L541.685 203.076L543.038 211.088L538.479 221.745L534.058 230.273L526.696 238.868L516.403 251.655L508.51 265.201L504.652 274.82C504.643 274.865 504.627 274.911 504.619 274.964L503.411 285.772L500.81 295.376L498.603 305.23L495.8 315.304L491.402 323.619L487.343 335.201L486.328 339.468L485.708 344.441L484.097 355.803V362.898L486.127 372.971C486.135 373.039 486.159 373.1 486.207 373.168L493.851 384.955C493.899 385.031 493.963 385.091 494.044 385.137L515.782 397.916C515.863 397.962 515.952 397.992 516.056 398L536.586 399.827L548.547 399.834L561.595 407.414L574.216 421.247L583.978 428.069C584.026 428.107 584.082 428.13 584.139 428.152L605.475 435.027L624.878 438.704C624.942 438.726 624.991 438.711 625.071 438.711L637.845 437.476L648.227 447.807L645.771 453.355L643.54 466.438L640.64 471.146L635.727 474.299L625.837 481.333C625.788 481.363 625.756 481.401 625.724 481.447L618.878 489.875L613.908 495.841L606.925 500.571L595.746 505.71L581.313 510.455L575.924 511.842L568.772 512.524L553.695 513.646L542.62 514.343L525.899 516.17L515.687 519.71C515.63 519.732 515.566 519.763 515.517 519.808L506.666 526.547L498.966 533.596L492.909 539.652L486.28 545.959L479.877 551.265L472.878 556.002L463.857 561.316L455.956 567.251L447.95 572.284L439.316 577.18L431.471 581.524L425.125 587.08L418.464 593.409L412.987 599.913L406.31 608.493L400.438 618.809L397.627 623.425L393.866 627.844L386.827 635.409L381.35 643.042L374.914 651.736L365.918 665.554L350.333 674.885C350.252 674.93 350.196 674.991 350.139 675.059L343.704 684.466L339.186 690.628L330.044 694.161L314.266 693.046C314.105 693.046 313.904 693.099 313.783 693.221C313.662 693.342 313.589 693.516 313.614 693.691L314.999 704.735L310.601 711.951L303.675 713.906L296.788 708.972L298.528 700.907L305.471 687.081L308.016 684.625L315.313 675.438C315.418 675.317 315.458 675.166 315.434 675.014L314.025 665.471C314 665.334 313.92 665.206 313.807 665.115L302.732 656.133L285.4 643.474L275.243 631.634L270.62 623.152L272.151 620.424L278.739 618.946L294.211 615.997L305.213 611.04C305.269 611.017 305.318 610.987 305.358 610.949L311.793 605.613L316.328 599.473L324.141 590.529L332.992 580.993L335.417 578.174C335.449 578.128 335.481 578.083 335.505 578.037L337.116 574.384L341.353 563.552C341.377 563.491 341.385 563.423 341.385 563.363L341.578 555.222C341.586 555.07 341.522 554.919 341.409 554.805L334.168 547.786C334.088 547.71 333.991 547.657 333.878 547.634L320.396 544.405L305.817 540.365L296.056 534.241L294.896 526.35L293.704 514.882L297.602 507.006L305.334 501.192L313.686 497.039L321.217 491.513C321.281 491.467 321.338 491.407 321.378 491.339L326.219 483.198C326.251 483.145 326.275 483.084 326.283 483.024L328.49 471.654L330.89 463.702L335.087 454.94L337.704 449.907L339.734 445.086L343.374 434.095C343.398 434.035 343.398 433.966 343.398 433.906L342.996 423.658C342.996 423.59 342.988 423.521 342.947 423.453L337.317 410.818L334.337 404.595L334.136 398.947L334.539 386.35L334.136 377.459L332.525 364.224L331.518 354.825L329.497 341.742L330.294 332.859L334.869 323.967L337.664 319.374L340.459 315.486L348.682 306.124L355.166 296.521C355.19 296.475 355.222 296.43 355.23 296.377L363.687 269.422L365.709 259.257L367.118 253.663L369.293 249.578L376.292 239.535L383.307 231L389.171 222.973L396.267 208.571L398.063 205.524L404.498 195.435L409.339 186.407L413.592 176.682L419.592 167.215L423.327 162.873Z" fill="#DCDDDF"/>
<path d="M469.413 173.381C469.405 173.381 469.389 173.389 469.365 173.389L456.284 174.23C456.228 174.23 456.164 174.245 456.107 174.268L444.219 178.619L434.24 184.994L428.989 188.806L424.873 193.377L419.372 202.018L415.329 209.492L410.875 219.497L406.058 229.161L402.482 235.938L396.119 241.623L390.457 247.255C390.393 247.315 390.344 247.391 390.312 247.474L387.912 254.357C387.904 254.402 387.888 254.456 387.888 254.509L387.292 266.151L385.681 275.073L382.073 285.374L377.876 294.599L372.713 301.079L365.948 307.045L360.656 312.836L357.161 318.983L353.303 329.595L349.082 339.1C349.05 339.168 349.034 339.236 349.034 339.312L348.833 349.136L351.257 361.044L355.067 384.186L357.499 397.117L359.505 406.531L366.544 425.2L366.746 431.143L365.932 443.582L365.546 448.069L363.395 451.465L357.362 461.296L353.303 470.346L351.442 480.86L350.645 491.585L348.116 500.901L337.525 505.138L328.48 508.503C328.399 508.526 328.335 508.572 328.278 508.625L323.236 513.256C323.099 513.385 323.035 513.559 323.059 513.733C323.083 513.908 323.18 514.067 323.349 514.165L337.243 522.17L357.765 535.927L362.307 550.526L362.106 559.425L360.302 571.431L357.709 579.769L351.313 589.88L342.55 598.484L339.055 603.479L335.068 608.497L330.389 616.569L326.571 623.596C326.538 623.649 326.514 623.709 326.514 623.762L324.493 634.571C324.485 634.617 324.485 634.67 324.485 634.723L325.298 643.569C325.306 643.735 325.403 643.887 325.548 643.986L333.997 649.739C334.118 649.822 334.303 649.837 334.44 649.845L345.104 648.579L358.699 644.342L363.21 642.204L366.77 639.316C366.818 639.271 366.858 639.218 366.891 639.165L372.923 629.053L378.159 620.495L382.621 610.467L389.789 601.174C389.821 601.129 389.845 601.091 389.87 601.045L391.585 596.929L396.555 595.194C396.643 595.163 396.724 595.118 396.78 595.05L405.439 586.484L412.711 578.321L417.681 572.083L426.001 567.929L435.674 562.873L445.372 557.241L451.428 553.292L457.823 549.957L467.939 543.18L477.041 535.851L482.115 531.197L487.527 526.732L495.195 519.691L503.201 513.543L510.595 508.95L519.326 506.054L533.525 503.553L546.485 499.748L558.526 496.943L573.418 493.29L578.267 492.024C578.355 492.001 578.444 491.948 578.516 491.888L581.537 489.219L591.806 479.805L600.513 469.648C600.714 469.421 600.69 469.087 600.464 468.875L577.911 447.963L571.21 443.142L552.887 430.362L539.501 424.405L519.856 420.008L502.967 415.809L488.421 411.36L479.15 403.795L474.584 394.388L470.589 382.382L469.405 370.572L468.607 359.915L469.01 348.47L470.017 338.396L471.225 327.451L473.222 317.392L474.455 307.243L476.259 296.737L479.054 287.398L485.28 272.14L488.042 267.888L492.915 258.572L497.136 251L504.127 241.662L513.534 232.755L516.748 229.814C516.812 229.746 516.868 229.663 516.909 229.572L518.318 225.357L521.935 214.829L522.772 207.128C522.78 207.006 522.764 206.885 522.692 206.779L516.852 197.236C516.828 197.19 516.796 197.152 516.748 197.115L505.077 186.306C505.045 186.268 504.996 186.237 504.94 186.207L487.229 176.945C487.181 176.922 487.124 176.899 487.06 176.884L469.55 173.374C469.501 173.39 469.453 173.382 469.413 173.382L469.413 173.381ZM456.47 175.375L469.373 174.541L486.714 178.012L504.272 187.199L515.83 197.894L521.524 207.21L520.735 214.608L515.773 229.093L512.665 231.943L503.193 240.933L496.097 250.4L491.82 258.048L486.971 267.326L484.184 271.631L477.894 287.026L475.067 296.478L473.239 307.075L472.023 317.209L470.025 327.268L468.809 338.266L467.802 348.378L467.399 359.914L468.197 370.647L469.405 382.593L473.456 394.781L478.119 404.415C478.152 404.491 478.208 404.559 478.264 404.612L487.728 412.329C487.793 412.382 487.865 412.42 487.946 412.442L502.637 416.937L519.575 421.159L539.114 425.518L552.283 431.377L570.485 444.081L577.114 448.848L599.215 469.351L590.903 479.053L577.791 490.977L573.087 492.197L558.219 495.843L546.154 498.647L533.235 502.445L519.019 504.954L510.063 507.933L502.484 512.625L494.389 518.84L486.698 525.889L481.285 530.354L476.219 535.008L467.198 542.285L457.187 548.993L450.792 552.328L444.703 556.292L435.062 561.886L425.437 566.919L417.004 571.126C416.924 571.172 416.843 571.225 416.803 571.293L411.761 577.615L404.536 585.725L395.999 594.169L390.9 595.943C390.739 596.003 390.61 596.125 390.538 596.269L388.758 600.559L381.565 609.905L377.063 619.986L371.868 628.483L365.884 638.504L362.533 641.248L358.24 643.272L344.83 647.448L334.521 648.661L326.491 643.196L325.709 634.691L327.691 624.041L331.468 617.098L336.091 609.109L340.062 604.129L343.509 599.187L352.297 590.561L358.837 580.207L361.511 571.657L363.339 559.499L363.54 550.449C363.54 550.388 363.54 550.335 363.516 550.282L358.893 535.403C358.861 535.274 358.772 535.168 358.659 535.092L337.919 521.198L324.67 513.557L329.059 509.525L337.999 506.197L348.881 501.839C349.058 501.771 349.187 501.627 349.243 501.452L351.861 491.765L352.674 480.994L354.486 470.663L358.465 461.802L366.688 448.545C366.737 448.469 366.753 448.378 366.769 448.295L367.164 443.663L367.977 431.157L367.776 425.07C367.776 425.009 367.768 424.956 367.744 424.896L365.126 417.877L360.696 406.219L358.715 396.903L356.291 384.002L352.481 360.845L350.056 349.036L350.274 339.44L354.454 329.995L358.288 319.429L361.671 313.479L366.833 307.832L373.623 301.836L378.931 295.166L383.224 285.782L386.88 275.352L388.515 266.279L389.111 254.644L391.455 247.958L396.988 242.44L403.408 236.702C403.464 236.657 403.512 236.604 403.544 236.535L407.177 229.66L412.001 219.958L416.447 209.976L420.45 202.578L425.871 194.05L429.825 189.639L434.964 185.932L444.798 179.641L456.47 175.375Z" fill="#DCDDDF"/>
<path d="M427.144 303.643C427.136 303.643 427.112 303.651 427.096 303.651L410.601 304.773C410.544 304.78 410.48 304.788 410.423 304.811L397.738 309.442C397.69 309.457 397.65 309.487 397.601 309.518L391.762 313.588L387.244 318.591L381.541 328.225L377.474 338.26L376.233 347.948L377.24 360.136L379.866 371.726L382.282 383.088L384.086 394.988L386.108 405.82L387.711 418.281L388.717 428.234L388.524 440.24L387.115 461.828L384.521 470.696L382.685 481.285L381.678 491.715L382.475 503.032L385.302 514.909L390.143 528.72L392.559 538.217L393.147 551.164L393.55 557.076C393.55 557.159 393.582 557.243 393.631 557.319L395.04 559.699C395.121 559.85 395.274 559.956 395.459 559.987C395.628 560.025 395.821 559.972 395.958 559.866L397.964 558.319C398.028 558.266 398.085 558.206 398.133 558.137L400.751 553.226L406.783 544.418L422.763 544.281C422.811 544.274 422.868 544.274 422.908 544.259L435.988 540.886L448.553 535.807L453.828 533.268L458.137 530.266L467.271 521.504L476.88 514.25L482.856 510.778L488.864 507.708L500.76 500.962L514.187 494.951L519.962 493.011L525.286 490.305L535.659 482.103L545.381 472.363L547.797 469.832C547.902 469.725 547.958 469.589 547.958 469.445C547.958 469.18 547.765 468.854 547.507 468.763L534.983 449.775C534.934 449.699 534.87 449.646 534.806 449.593L517.9 439.201C517.843 439.163 517.779 439.141 517.706 439.125L501.195 435.336L487.632 431.856L474.64 423.071L460.215 409.511L454.271 403.697L451.686 397.906L447.312 384.702L446.91 373.825L447.707 362.235L448.11 340.314L446.499 329.558L442.657 316.149C442.633 316.035 442.568 315.937 442.464 315.861L427.571 303.794C427.442 303.695 427.289 303.642 427.144 303.642L427.144 303.643ZM410.786 305.91L426.943 304.811L441.497 316.605L445.274 329.771L446.861 340.368L446.458 362.174L445.661 373.802L446.063 384.816C446.063 384.861 446.071 384.914 446.088 384.967L450.509 398.3L453.159 404.25C453.191 404.311 453.224 404.379 453.28 404.425L459.313 410.322L473.81 423.95L486.955 432.857C487.019 432.902 487.076 432.925 487.156 432.948L500.848 436.457L517.263 440.224L533.959 450.488L546.476 469.452L544.438 471.582L534.773 481.269L524.56 489.357L519.429 491.965L513.687 493.89L500.148 499.946L488.227 506.708L482.203 509.785L476.138 513.31L466.416 520.647L457.307 529.394L453.159 532.29L448.004 534.761L435.569 539.794L422.634 543.121L406.404 543.258C406.203 543.265 406.01 543.356 405.897 543.523L399.647 552.641L397.062 557.5L395.717 558.531L394.742 556.871L394.347 551.095L393.751 538.05L391.319 528.401L386.47 514.598L383.659 502.864L382.87 491.729L383.877 481.428L385.689 470.938L388.282 462.016L389.716 440.277L389.909 428.187L388.903 418.152L387.292 405.645L385.27 394.806L383.466 382.898L381.042 371.498L378.424 359.976L377.433 347.977L378.641 338.54L382.636 328.717L388.226 319.25L392.575 314.429L398.245 310.495L410.786 305.91Z" fill="#DCDDDF"/>
<path d="M486.733 198.084C486.725 198.084 486.709 198.091 486.684 198.091L473.201 198.933L458.704 200.198C458.648 200.206 458.591 200.214 458.535 200.236L449.877 203.465C449.772 203.503 449.699 203.564 449.627 203.632L444.601 209.393L439.301 219.042L433.269 229.131C433.237 229.192 433.204 229.252 433.188 229.313L432.012 236.044L427.083 241.676C427.051 241.713 427.027 241.751 427.003 241.797L423.588 248.672L421.928 255.388L421.92 267.864L422.718 275.361C422.726 275.452 422.766 275.535 422.806 275.611L426.833 281.652C426.946 281.819 427.14 281.925 427.349 281.925H427.357L437.819 281.781L452.591 279.666C452.696 279.659 452.784 279.621 452.865 279.56L457.907 276.05C458.028 275.975 458.108 275.846 458.14 275.709L459.348 270.517L462.167 258.73L466.146 250.703L473.274 241.608L487.683 231.413C487.772 231.352 487.844 231.284 487.877 231.193L489.689 227.403L494.739 214.169L497.534 208.749C497.646 208.529 497.598 208.271 497.421 208.097L487.16 198.273C487.047 198.152 486.902 198.084 486.733 198.084L486.733 198.084ZM458.906 201.335L473.307 200.077L486.499 199.251L496.253 208.597L493.627 213.706L488.577 226.955L486.838 230.571L483.35 233.004L472.469 240.72C472.421 240.758 472.381 240.796 472.348 240.842L465.108 250.104L461.024 258.344L456.997 275.239L452.269 278.536L437.723 280.621L427.687 280.749L423.918 275.102L423.129 267.795V255.501L424.732 249.028L428.066 242.335L433.052 236.635C433.116 236.559 433.164 236.468 433.189 236.362L434.373 229.586L440.357 219.565L445.6 210.007L450.457 204.466L458.906 201.335Z" fill="#DCDDDF"/>
<path d="M427.742 416.363C427.678 416.363 427.621 416.371 427.549 416.394L418.89 419.062C418.697 419.122 418.544 419.266 418.496 419.456L416.289 427.036L414.066 437.89L413.446 448.775L415.258 460.956L417.062 471.916L422.523 491.912C422.547 492.003 422.587 492.087 422.66 492.155L426.292 495.801C426.373 495.869 426.453 495.922 426.55 495.952L435.804 498.901L453.926 504.237C454.031 504.252 454.152 504.267 454.233 504.245L470.333 501.016L483.743 495.369L489.188 492.973L493.73 489.676L502.075 480.467L514.51 469.711C514.647 469.589 514.712 469.415 514.704 469.241C514.696 469.066 514.591 468.9 514.43 468.809L476.382 444.803L458.679 433.017L442.546 423.875L428.032 416.417C427.944 416.386 427.839 416.364 427.742 416.364L427.742 416.363ZM419.591 420.062L427.686 417.568L441.942 424.89L458.018 434.001L475.697 445.773L513.11 469.377L501.19 479.693L492.894 488.864L488.553 492.01L483.229 494.337L469.956 499.946L454.137 503.099L436.176 497.809L427.075 494.913L423.66 491.479L421.888 485.158L418.272 471.688L416.475 460.789L414.663 448.729L415.275 438.034L417.474 427.308L419.591 420.062Z" fill="#DCDDDF"/>
<path d="M456.341 459.034C456.26 459.034 456.18 459.049 456.115 459.079L447.86 462.164C447.61 462.263 447.457 462.498 447.473 462.748L448.27 471.594C448.279 471.692 448.319 471.783 448.375 471.867L455.624 481.978C455.729 482.115 455.882 482.205 456.051 482.228C456.212 482.251 456.397 482.198 456.534 482.084L464.588 475.346L475.139 469.805C475.341 469.706 475.453 469.509 475.453 469.304C475.453 469.1 475.341 468.903 475.139 468.804L456.623 459.117C456.542 459.056 456.437 459.034 456.341 459.034L456.341 459.034ZM448.73 463.074L456.293 460.247L473.601 469.297L463.896 474.406L456.252 480.781L449.487 471.344L448.73 463.074Z" fill="#DCDDDF"/>
</svg>
